<?xml version="1.0" encoding="UTF-8"?>
<svg width="1192px" height="243px" viewBox="0 0 1192 243" version="1.1" xmlns="http://www.w3.org/2000/svg" xmlns:xlink="http://www.w3.org/1999/xlink">
    <!-- Generator: Sketch 52.6 (67491) - http://www.bohemiancoding.com/sketch -->
    <title>Group 4</title>
    <desc>Created with Sketch.</desc>
    <g id="Page-1" stroke="none" stroke-width="1" fill="none" fill-rule="evenodd">
        <g id="Group-11" transform="translate(-230.000000, -472.000000)">
            <g id="mainLogo" transform="translate(66.000000, 293.574560)">
                <g id="Group-4" transform="translate(164.000000, 112.000000)">
                    <g id="pepisSign-Copy">
                        <g id="background-circles" transform="translate(115.430830, 0.000000)">
                            <g id="Oval-9-Copy"></g>
                        </g>
                        <g id="Original-Version-Copy" transform="translate(0.000000, 67.165605)">
                            <path d="M603.754781,19.0045384 L598.716794,13.4590565 C687.41496,10.1732108 736.101198,8.48093504 744.775511,8.3822293 C753.449823,8.28352356 761.596631,12.2407545 769.215935,20.2539222 C775.820845,13.4352985 786.609384,10.0259867 801.581551,10.0259867 C824.039801,10.0259867 835.667667,20.4085233 835.667667,40.8899396 C836.302772,42.0390946 837.440736,43.049742 839.081558,43.9218819 L933.183881,33.0197183 C937.339326,32.5383141 939.179821,33.3114438 938.705366,35.3391074 C938.230911,37.3667709 936.836628,42.0261415 934.522516,49.3172191 L1017.23322,42.0077784 L1017.23322,6.80065914 L1048.43044,33.0197183 C1051.32208,34.5104386 1054.18085,34.5104386 1057.00675,33.0197183 C1061.24561,30.7836379 1113.16115,18.6097652 1141.17971,58.200163 C1146.50643,65.1787395 1149.69664,80.9148349 1150.75036,105.408449 L1154.04519,173.872531 C1166.86668,187.643083 1178.72518,201.464898 1189.62071,215.337978 C1191.06518,217.177195 1193.71197,220.346723 1189.62071,219.170205 C1186.7289,219.006473 1170.5819,219.006473 1141.17971,219.170205 L1152.04519,236.750279 L1150.75036,238.979468 L1069.22209,238.979468 C1070.3601,234.88725 1069.06004,232.99004 1065.32191,233.287837 C1059.71471,233.734533 1055.96533,241.992469 1037.99797,242.242407 C1020.0306,242.492346 1012.41385,232.687685 1009.34789,230.558871 C1008.62203,233.294483 1007.66206,236.615929 1006.46797,240.523208 L876.626014,233.287837 L883.090046,225.530146 L883.090046,223.15213 L858.746799,221.47334 L864.388905,231.662077 L749.82255,229.081822 L751.02546,235.044444 L605.258777,233.287837 L623.637337,213.083236 L608.011862,213.083236 L640.30106,177.423941 L638.367498,91.0830521 C636.296657,84.3000777 631.386603,77.518437 623.637337,70.7381299 C618.839881,66.5405424 613.166573,61.5156966 606.617412,55.6635923 L606.617412,102.368143 C606.60853,105.070316 607.441985,107.177476 609.117776,108.689624 C611.631462,110.957844 621.016568,117.410182 621.612424,147.155697 C622.20828,176.901212 614.884045,211.512522 573.381186,210.565016 C531.878326,209.61751 523.973829,209.058876 521.406896,208.411413 C519.695607,207.979771 514.560698,211.974651 506.002169,220.396052 L488.517071,235.460744 L486.14903,234.458624 C486.253187,222.573415 485.843499,216.405192 484.919963,215.953958 C483.534661,215.277106 483.671855,214.734638 481.179593,217.185914 C479.518084,218.820097 478.214238,215.649614 477.268055,207.674464 L434.191653,209.109182 L447.06571,222.794346 L447.06571,225.377967 L254.153301,222.794346 L265.670165,210.565016 C266.345185,208.637981 265.313703,207.674464 262.575718,207.674464 C258.468741,207.674464 258.019329,210.411788 259.280255,211.728305 C252.170879,211.728305 177.414576,215.416986 35.0113456,222.794346 L55.3399112,201.60958 L0.795298613,203.965653 L0.795298613,201.60958 L63.2351596,144.008331 L63.2351596,60.5823646 L19.4838841,7.10059387 L19.4838841,3.99092867 L164.118654,0.989737612 C201.376119,4.33949651 223.762732,15.2916151 231.278493,33.8460933 C242.292505,33.8460933 255.583667,33.8460933 271.151977,33.8460933 L271.151977,28.5167321 L356.728205,28.5167321 C360.330766,29.6721728 362.208761,31.4486265 362.362189,33.8460933 C370.553684,25.0376154 395.704819,27.4451484 400.909232,32.1593122 C402.720757,6.99624472 418.826443,-3.39361349 449.226291,0.989737612 C460.120865,4.86164182 467.469941,10.1751284 471.27352,16.9301973 C475.185033,16.9301973 479.163464,16.9301973 483.208814,16.9301973 L537.642962,0.989737612 C539.879862,1.43185523 540.439087,2.43225225 539.320637,3.99092867 C538.202187,5.54960508 532.23094,15.1903434 521.406896,32.9131436 L521.406896,35.0267806 C527.940304,35.6085186 533.352326,34.903973 537.642962,32.9131436 C544.078917,29.9268994 560.526796,22.4482241 581.808134,35.0267806 C587.926645,30.5176854 595.242194,25.176938 603.754781,19.0045384 Z M606.617412,22.1555337 L606.617412,43.9218819 L623.637337,43.9218819 L623.637337,40.8899396 L606.617412,22.1555337 Z" id="Combined-Shape" fill="#0F0F0F"></path>
                            <g id="P" transform="translate(49.406605, 15.946921)">
                                <path d="M15.006923,1.07312613 L10.6459578,1.07312613 C7.84981503,1.37749602 7.15077934,2.34930787 8.54885072,3.98856167 C9.94692211,5.62781547 18.7901636,15.052522 35.0785752,32.2626814 L35.0785752,134.249512 C35.1041129,135.347559 34.606982,136.478907 33.5871826,137.643556 C32.5673832,138.808204 21.5626374,149.533635 0.57294523,169.819847 L134.2203,164.030585 C135.917743,163.598303 136.110596,163.006821 134.79886,162.25614 C133.487123,161.505458 114.192871,153.027835 76.9161026,136.823268 C74.5019719,135.713671 73.3024535,133.842737 73.3175476,131.210466 C73.3326417,128.578195 73.3401888,120.910443 73.3401888,108.207209 C114.89227,108.07311 141.947927,98.359141 154.50716,79.0653014 C169.898283,62.1887526 172.052101,7.88746641 127.400417,1.07312613 C121.175697,0.0986700707 83.7111995,0.0986700707 15.006923,1.07312613 Z" id="Path-21" fill="#FFFFFF"></path>
                                <path d="M21.511778,9.34231868 L39.8211754,28.4793754 L39.8211754,137.655082 C28.9503593,148.573977 19.7918517,157.187968 12.3456527,163.497056 C10.4753417,164.891154 10.379477,166.686204 12.3456527,166.686204 C13.6564366,166.686204 48.6489354,165.623155 117.323149,163.497056 C119.20883,163.064424 119.20883,162.467368 117.323149,161.705889 C115.437468,160.944409 99.2751832,153.493332 68.8362934,139.352658 L68.8362934,102.420191 C120.424433,105.804523 150.733276,91.6508276 159.762822,59.9591064 C164.434913,19.8829339 137.040482,5.31289209 111.943698,5.31289209 C95.2125086,5.31289209 64.1002897,5.31289209 18.6070414,5.31289209 C17.7750685,5.12659629 17.996557,5.70104656 19.2715068,7.0362429 C20.5464566,8.37143924 21.2932137,9.14013117 21.511778,9.34231868 Z" id="Path-20" fill="#FF5D00"></path>
                                <path d="M71.7192657,21.1473461 L71.7192657,77.4591677 C98.0201437,77.4997814 114.626351,73.4199162 121.537888,65.2195721 C128.449424,57.019228 131.643895,49.1695399 131.121298,41.6705076 C129.712607,29.9190018 124.525603,23.077948 115.560284,21.1473461 C106.151984,21.1473461 91.5383117,21.1473461 71.7192657,21.1473461 Z" id="Path-41" fill="#FFFFFF"></path>
                                <path d="M74.9067886,25.9314225 L74.9067886,68.9878808 C97.9958832,69.0189344 112.574191,65.8994376 118.641712,59.6293905 C124.709233,53.3593434 127.513604,47.3574106 127.054825,41.623592 C125.818159,32.638299 121.264576,27.4075758 113.394075,25.9314225 C105.134688,25.9314225 92.3055929,25.9314225 74.9067886,25.9314225 Z" id="Path-41-Copy" fill="#0F0F0F"></path>
                            </g>
                            <g id="e" transform="translate(211.554378, 48.257113)">
                                <path d="M96.1411914,66.6033928 C100.508196,66.6033928 102.824828,64.4893426 103.091087,60.2612421 C105.509178,25.8088294 92.3085728,6.17753535 63.4892709,1.36735993 C18.6426075,-3.24790487 3.12824982,30.7514163 0.95719492,47.724224 C-1.21385998,64.6970318 0.000289769779,112.254395 42.1853568,117.001748 C59.937755,118.629346 69.9176111,115.405694 75.2122457,109.383941 C75.7482194,108.726026 76.6885006,108.68407 77.3109482,109.249676 C81.8372781,113.53422 86.4687691,118.68406 91.2054214,124.699195 C93.0182986,126.04371 93.9247372,125.251492 93.9247372,122.32254 C93.9247372,119.393587 94.5140788,104.643573 95.692762,78.0724975 C95.6116999,75.3605644 94.6647302,75.0710748 92.851853,77.2040286 C90.1325372,80.4034593 74.3385963,98.498058 52.6106859,95.04773 C39.4875062,91.6551103 34.3112991,82.7939047 37.0820647,68.4641134 C72.0878114,67.223633 91.774187,66.6033928 96.1411914,66.6033928 Z" id="Path-22" fill="#FFFFFF"></path>
                                <path d="M37.2211288,65.1097709 L93.7713375,63.7862242 C95.8986958,63.1289518 96.9582675,61.1546991 96.9500526,57.8634662 C96.9377302,52.9266167 95.7273996,34.8711093 90.1508426,26.9418286 C84.5742856,19.0125478 71.6700258,1.39222843 36.1240957,11.1271056 C13.094979,19.6556938 3.42249172,42.0116512 7.10663399,78.1949777 C12.6152566,101.242492 26.9859362,113.431572 50.218673,114.762215 C63.7228486,115.816418 71.9643802,108.8145 74.4278318,107.287241 C76.1110477,106.091669 77.2204937,105.691827 80.4813543,108.858971 C83.7422149,112.026115 84.3547637,112.951249 88.3725424,117.304312 C89.2890498,118.162695 90.7893855,117.709659 90.7893855,116.900155 C90.7893855,116.380911 92.3225656,101.294407 93.7713375,82.0933025 C93.8272133,81.3527604 93.0365571,81.1366539 92.3225656,81.4605875 C87.0196836,87.8664351 77.2029151,99.1381697 57.6015399,99.1381697 C34.374784,97.9499194 32.0263022,84.215524 32.9948065,69.851399 C32.9948065,68.1355597 33.5068686,65.1097709 35.0995583,65.1097709 C36.1613515,65.1097709 36.8685416,65.1097709 37.2211288,65.1097709 Z" id="Path-23" fill="#FF5D00"></path>
                                <path d="M73.0251802,44.7445724 C73.0251802,32.3629655 64.263327,22.32569 53.4550334,22.32569 C42.6467397,22.32569 33.8848865,32.3629655 33.8848865,44.7445724 C34.5734954,49.8324344 73.0251802,49.9742878 73.0251802,44.7445724 Z" id="Oval-7" fill="#FFFFFF"></path>
                                <path d="M67.1581125,43.4294572 C67.1581125,34.4163409 60.7799742,27.1097665 52.9121417,27.1097665 C45.0443093,27.1097665 38.6661709,34.4163409 38.6661709,43.4294572 C39.1674396,47.1331357 67.1581125,47.2363971 67.1581125,43.4294572 Z" id="Oval-7-Copy" fill="#0F0F0F"></path>
                            </g>
                            <g id="p(small)" transform="translate(284.689540, 44.651380)">
                                <path d="M13.2787288,2.84708223 C21.8002627,10.8893828 27.6137521,16.1459975 30.7191971,18.6169261 C35.3773647,22.3233191 37.6411412,22.509559 37.3558291,28.8174295 C36.4653905,72.9406069 37.2816297,73.0787611 35.6835316,118.456546 C35.5379434,121.710572 35.2658788,123.103186 32.7387093,125.009047 C22.3647721,131.745253 12.0010628,138.498412 1.64758133,145.268523 C-0.363994059,146.470066 -0.363994059,147.070838 1.64758133,147.070838 C4.66494442,147.070838 53.5089371,147.425054 101.417976,147.070838 C103.678366,147.070838 106.877303,145.938288 101.065966,143.857797 C97.1917415,142.470804 87.774468,139.111271 72.8141457,133.779201 C69.362999,132.228232 67.0456352,131.040374 65.8620544,130.215626 C62.9543185,128.189445 61.5004505,126.612626 61.5004505,123.740644 C61.5004505,120.05168 61.5004505,114.332062 61.5004505,106.581791 C68.5867495,109.384213 76.2327344,110.785425 84.4384052,110.785425 C96.7469113,110.785425 126.125672,100.314036 132.173769,61.0825028 C138.221865,21.8509699 113.187992,0.684838733 93.0010689,0.213483187 C79.5431201,-0.100753843 70.2503383,3.05884306 65.1227235,9.69227391 L63.640309,9.69227391 L63.640309,4.31771821 C63.8820665,2.63021626 62.2876767,1.78646528 58.8571397,1.78646528 C53.711334,1.78646528 36.39382,1.78646528 14.0951439,1.84589639 C12.9227282,1.80627565 12.6505898,2.14000426 13.2787288,2.84708223 Z" id="Path-24" fill="#FFFFFF"></path>
                                <path d="M28.1165212,7.53067875 C37.2469594,7.49463635 46.8427815,7.62607178 56.9039875,7.92498504 C58.6856965,7.95000204 59.576551,9.18805452 59.576551,11.6391425 C59.576551,14.0902305 59.576551,16.6128093 59.576551,19.206879 C72.1619861,10.8887289 81.9655204,6.72128281 88.9871538,6.70454067 C99.519604,6.67942746 123.500782,8.42833554 126.815388,43.829282 C130.129993,79.2302285 113.812893,103.576245 88.3097954,106.967554 C79.0549571,108.198228 69.309138,106.628765 59.072338,102.259164 C58.308349,101.681082 58.308349,102.537778 58.308349,102.838337 C58.308349,111.533091 58.308349,117.883429 58.308349,121.88935 C58.308349,126.491353 57.9878633,127.969191 59.576551,129.885319 C61.3341398,132.00516 61.9835032,132.851731 67.3899133,135.224659 C77.1493814,139.508187 87.9943934,143.207789 89.8819329,143.57092 C90.4204379,143.696215 91.1392778,145.519391 87.9943934,145.519391 C85.8978038,145.519391 61.4860866,145.144332 14.7592418,144.394214 C13.8216039,143.568453 13.6376986,142.975806 14.2075259,142.616274 C14.760294,142.267505 21.9647203,138.84359 36.347698,128.621067 C37.2002793,128.112611 38.9835272,127.263729 39.1598904,124.683315 C40.1285109,90.637085 41.1126752,56.7032975 42.1123834,22.8819531 C37.3011759,18.5800475 32.2371744,14.2880774 26.9203791,10.0060427 C26.353493,9.59077805 25.6985605,7.47290307 28.1165212,7.53067875 Z" id="Path-25" fill="#FF5D00"></path>
                                <ellipse id="Oval-8" fill="#FFFFFF" transform="translate(81.875596, 53.041189) rotate(10.000000) translate(-81.875596, -53.041189) " cx="81.8755959" cy="53.041189" rx="20.718899" ry="30.2991507"></ellipse>
                                <ellipse id="Oval-8-Copy" fill="#0F0F0F" transform="translate(81.963685, 53.304622) rotate(10.000000) translate(-81.963685, -53.304622) " cx="81.9636854" cy="53.3046219" rx="16.9297901" ry="24.7579885"></ellipse>
                            </g>
                            <g id="i" transform="translate(393.243185, 8.389809)">
                                <path d="M20.0111246,44.2476129 C34.2116025,44.2476129 48.9490451,44.2476129 64.2234524,44.2476129 L64.2234524,138.556323 L85.9319625,157.221422 C86.1055038,158.921491 85.6350878,159.771525 84.5207147,159.771525 C83.4063415,159.771525 55.4140099,158.921491 0.543719714,157.221422 C-0.728350117,156.177302 0.556866465,154.565739 4.39936946,152.386732 C8.24187246,150.207726 17.0509256,144.540116 30.8265289,135.383904 L31.5894056,63.6798504 C26.7861175,57.9676356 22.2674147,52.6036491 18.0332972,47.5878907 C16.4471509,45.1302602 18.3605075,44.2476129 20.0111246,44.2476129 Z" id="Path-26" fill="#FFFFFF"></path>
                                <path d="M25.5286187,51.2400588 C28.6595132,55.1126821 31.9466624,58.8570533 35.3900662,62.4731725 C36.0931596,95.8663244 36.0931596,121.222711 35.3900662,138.542332 C35.2496293,138.939621 34.7349617,139.384776 33.8460633,139.877796 C24.9297353,145.775576 18.1741981,150.106642 13.5794519,152.870994 C13.0086496,153.44192 12.9362038,154.029596 13.3621147,154.634022 L74.8967115,156.310788 C76.9163665,155.964747 76.5276372,155.020333 73.7305236,153.477546 C69.5348532,151.163364 61.3141473,143.530546 60.4531825,140.837228 C59.879206,139.041683 59.5795458,108.816902 59.5542019,50.1628863 C48.3079586,49.855717 37.6045148,49.4880946 27.4438705,49.0600188 C26.3047304,49.0960814 24.8825952,50.1495731 25.5286187,51.2400588 Z" id="Path-27" fill="#FF5D00"></path>
                                <path d="M43.4474553,35.0832272 C49.2665595,35.0832272 55.5060348,34.6840472 59.4783496,31.8153238 C63.9180864,28.6090377 65.7601157,22.6547561 65.7601157,17.5416136 C65.7601157,7.85364792 55.7703974,0 43.4474553,0 C39.5550115,0 35.5236067,0.510620221 32.3380495,1.88809248 C25.4385703,4.87150813 21.1347948,10.9137825 21.1347948,17.5416136 C21.1347948,27.2295793 31.1245132,35.0832272 43.4474553,35.0832272 Z" id="Oval-6-Copy" fill="#FFFFFF"></path>
                                <ellipse id="Oval-6" fill="#FF5D00" cx="43.4474553" cy="19.1363057" rx="17.5313761" ry="11.162845"></ellipse>
                            </g>
                            <g id="'" transform="translate(481.315961, 21.147346)">
                                <path d="M35.1161552,2.20150933 C22.5214456,24.4442052 20.1761413,26.2446051 4.55490774,48.1928522 C3.80942404,49.2402765 2.57875367,49.5389846 2.38272073,48.1928522 C0.995106775,38.6642896 0.200866532,28.2383053 0,16.9148994 C0.0688756341,12.5804397 1.33034155,10.0954151 3.78439776,9.45982555 C7.46548207,8.50644131 17.8837647,3.33266085 31.7793044,0.113619546 C33.5496434,-0.296497268 36.1336439,0.40458889 35.1161552,2.20150933 Z" id="Path-28" fill="#FFFFFF"></path>
                                <path d="M27.6570499,9.30767656 C20.024077,22.7877725 18.6027148,23.8788976 9.13552928,37.1805441 C8.68373189,37.8153314 7.93788909,37.9963622 7.81908411,37.1805441 C6.97812628,31.4057972 6.49678019,25.0871716 6.37504584,18.2246672 C6.41678764,15.5977854 7.18129397,14.0917462 8.66856482,13.7065498 C10.8994711,13.1287551 17.2134292,9.99320637 25.6347649,8.04231939 C26.7076717,7.79376975 28.2736948,8.21866018 27.6570499,9.30767656 Z" id="Path-28-Copy" fill="#FF5D00"></path>
                            </g>
                            <g id="s" transform="translate(495.659814, 45.067728)">
                                <path d="M92.4836721,46.003376 C75.0436104,37.9847074 61.6696984,27.4243132 57.5165293,26.6495413 C53.3633602,25.8747695 43.3050009,23.4863018 41.4203267,29.4359364 C39.5356524,35.3855709 39.6794749,40.9833091 58.9786591,50.9694461 C78.2778433,60.9555831 111.432309,67.2417793 103.065581,105.995603 C94.6988532,144.749427 40.0895085,131.83241 34.5763816,129.273281 C30.9009637,127.567194 25.0980527,124.485086 17.1676486,120.026957 C15.1891132,118.905375 13.5991899,118.905375 12.3978786,120.026957 C11.1965673,121.148539 7.14042974,124.782145 0.229465977,130.927774 L0.229465977,80.2758728 C0.624944972,78.2204891 1.76159328,77.9463991 3.63941092,79.4536028 C6.45613736,81.7144084 40.5945453,107.866407 57.5165293,103.952431 C74.4385133,100.038456 67.8166202,84.8780283 58.4795079,80.8339088 C49.1423955,76.7897893 14.2406826,63.366906 7.23507431,47.4218792 C0.229465977,31.4768524 3.44753443,11.2189028 34.5763816,1.82270622 C61.7828628,-4.12961734 82.6748367,14.655744 87.290628,8.49465113 C90.8714925,5.07344654 90.8147856,3.74931163 94.2445522,1.82270622 C95.8696437,0.909842331 98.3367464,1.50128736 98.3794162,3.74559838 C97.6726792,23.6605219 98.0807017,23.1007656 95.4103195,44.0725156 C95.1544817,46.0817283 93.9905055,46.6961945 92.4836721,46.003376 Z" id="Path-29" fill="#FFFFFF"></path>
                                <path d="M92.8410703,9.38764129 C92.9806988,23.9590867 92.9544336,26.8328667 91.5966807,40.4459666 C91.466138,41.7548139 89.8335483,40.8041856 89.3120389,40.4459666 C73.9419905,29.888449 62.9814006,23.512348 54.9852078,22.7587136 C33.5562782,19.6997996 32.784539,36.4920956 44.1441514,46.250503 C48.871975,49.9086508 58.1529162,55.4160888 69.5914822,60.6815493 C81.0300482,65.9470098 84.3076298,68.4510922 89.3120389,72.0300142 C98.4773047,79.883224 101.430147,88.763522 101.775288,95.4925502 C102.268863,105.11553 95.3448808,129.829717 63.8990801,129.23955 C32.4532794,128.649383 25.3308254,121.734749 16.0586203,114.00816 C14.8716395,113.64863 14.6205989,113.222295 13.6129286,114.00816 C9.62964604,117.943605 6.37198777,121.119981 3.83995375,123.537288 L3.83995375,84.8679333 C23.8451666,103.705736 41.8470549,112.501235 57.8456188,111.254429 C74.7264211,109.95998 78.9865096,87.1451692 63.1787934,79.2585964 C47.3710772,71.3720235 19.3372065,64.7735602 10.0935747,42.370829 C0.849943006,19.9680978 30.5949584,6.66265445 41.2875391,6.49947461 C51.9801197,6.33629478 64.2305675,6.75042306 83.0311745,14.0652712 C84.2241258,14.4561709 85.6639468,14.5299221 87.7273985,13.2799169 C88.7671564,12.5900837 90.3894368,10.5395355 91.8567383,8.71888907 C92.3081794,8.44146233 92.8345075,8.70276337 92.8410703,9.38764129 Z" id="Path-30" fill="#FF5D00"></path>
                            </g>
                            <g id="P" transform="translate(631.335968, 25.923567)">
                                <path d="M0.0556917474,0.470761313 L31.0854617,29.6704799 L33.4263417,151.449279 C25.5029672,160.00569 17.4165589,168.299405 9.16711691,176.330423 C8.31424719,177.308532 8.00447349,179.232399 9.16711691,179.270856 C52.0314263,179.270856 54.7054386,179.270856 98.0643245,179.270856 C99.226968,179.232399 99.0516315,177.054055 98.0643245,176.330423 C89.1151846,171.071743 79.0137031,164.734162 67.7598799,157.317681 C67.7598799,152.876257 67.7598799,149.813473 67.7598799,148.129329 C67.7598799,145.603114 67.7598799,126.93767 67.4692443,107.399497 C67.6633222,104.651709 68.6834324,103.862988 70.9088531,103.545629 C78.2958813,103.545629 86.1575394,103.545629 94.4938274,103.545629 C125.370845,103.824196 142.122775,89.4774145 144.749615,60.5052852 C148.689875,17.0470911 128.860661,0.470761313 99.8847571,0.470761313 C80.5674878,0.470761313 47.2911327,0.470761313 0.0556917474,0.470761313 Z" id="Path-32" fill="#FFFFFF"></path>
                                <path d="M14.0556536,7.70241904 C20.7414275,13.6486458 27.9885435,20.5463411 35.7970017,28.3955049 L39.0913595,150.85482 C39.0913595,155.474409 38.4298994,158.427657 37.1069792,159.714562 C35.1225988,161.644921 26.7466979,170.563235 22.5739913,173.991215 C21.8990765,174.83482 22.5774014,176.406132 23.6063003,176.440519 C48.6387163,175.999056 54.4303621,176.440519 82.6513847,175.999056 C83.6081025,175.949947 82.8740165,174.126959 82.039069,173.441147 C76.2939504,169.97319 68.3405245,165.827442 61.9154686,158.966925 C62.3321486,139.528325 61.276525,130.142604 62.3321486,102.396386 C62.3914396,100.837972 63.0258464,100.856826 64.1452978,100.357661 C80.5369159,100.883258 133.752402,105.79671 138.955447,68.2299509 C144.158493,30.6631922 132.21506,12.4745979 105.653052,7.70241904 C67.3473827,7.70241904 60.9982036,6.94305136 16.4084115,6.94305136 C15.1995043,6.94305136 13.2484518,6.80929282 14.0556536,7.70241904 Z" id="Path-31" fill="#FF5D00"></path>
                                <g id="Group-15" transform="translate(63.697772, 23.886927)">
                                    <path d="M0,0.979370393 L0,48.714921 L1.84315843,50.8875125 L25.0857136,50.8875125 C40.689293,49.5644304 48.8230517,41.2464067 49.4869899,25.9334415 C50.4828972,2.96399355 31.9451299,0 24.743495,0 C19.942405,0 11.7017103,0 0.0214108685,0 L0,0.979370393 Z" id="Path-40" fill="#FFFFFF"></path>
                                    <path d="M3.62482377,5.8738861 C3.14712863,18.3166029 3.14712863,30.5873087 3.62482377,42.6860035 C3.66808681,43.7817363 4.03082179,44.2712239 5.14443529,44.361436 C11.2960872,44.8597721 17.6836108,44.8597721 24.3070064,44.361436 C37.1715428,43.3411178 43.8775064,36.9265261 44.4248973,25.1176611 C45.2459836,7.40436348 29.9623249,5.11862723 24.0248605,5.11862723 C20.066551,5.11862723 13.2724229,5.11862723 3.64247619,5.11862723 L3.62482377,5.8738861 Z" id="Path-40-Copy" fill="#0F0F0F"></path>
                                </g>
                            </g>
                            <g id="i" transform="translate(764.434783, 23.566879)">
                                <path d="M16.8199038,56.0322046 C31.3205097,56.0322046 34.2725473,56.0322046 51.8784141,56.0322046 C52.6783598,56.0579868 53.2133933,56.0323856 53.2783604,57.2072589 C54.4415231,88.9707535 55.7523124,120.722508 57.2107285,152.462523 C66.5250416,161.37815 73.6584229,167.339671 78.6108725,170.347086 C79.4188326,171.168212 79.6262602,173.433939 78.6108725,173.464658 C41.7692857,172.653965 39.0015915,172.653965 2.35908936,172.653965 C0.769540814,172.557282 -0.762446279,169.855502 0.468129037,168.711666 C8.41159726,163.315007 16.8511222,157.140539 25.786704,150.188264 C26.5743817,149.575416 28.1056164,149.202831 28.1294828,146.837108 C28.3722878,122.769434 27.8500775,98.241664 26.5628518,73.253797 C23.3236168,69.5281393 19.8418486,65.570869 16.1175472,61.3819863 C15.060658,59.5138336 15.1428707,56.2830867 16.8199038,56.0322046 Z" id="Path-33" fill="#FFFFFF"></path>
                                <path d="M25.7451071,62.8239869 C35.8805196,62.8239869 39.6085851,62.8239869 47.4391437,62.8239869 C49.3683499,63.2064842 50.3140318,63.8874412 50.5862671,67.7491603 C51.7736278,112.316989 51.4088583,109.75695 53.6345724,150.707524 C53.7876314,153.523633 53.8827194,154.809576 54.382876,155.468415 C56.5811105,157.691389 63.0666205,162.822941 67.5956935,167.730758 C69.6524499,169.699914 68.4117248,171.071271 67.5956935,171.112226 C41.8800989,170.43585 34.3992482,171.112226 8.30011959,171.227374 C7.51279566,171.178068 7.03374223,169.430083 7.75934965,168.673298 C14.8848628,163.594087 21.2561625,158.379011 30.2764828,150.638746 C30.6769243,150.29513 30.9215322,149.843343 30.9048763,148.674228 C30.558239,124.342958 30.558239,99.4888975 30.9048763,74.1120455 C28.9933646,71.1681594 27.0590784,68.2059892 25.1020177,65.2255348 C24.6973617,64.3402664 25.0874679,62.8946922 25.7451071,62.8239869 Z" id="Path-34" fill="#FF5D00"></path>
                                <ellipse id="Oval-5" fill="#FFFFFF" cx="36.5728723" cy="18.6774015" rx="21.3373736" ry="18.6774015"></ellipse>
                                <ellipse id="Oval-5-Copy" fill="#FF5D00" cx="37.3935405" cy="20.3753471" rx="17.2340325" ry="15.2815103"></ellipse>
                            </g>
                            <g id="z-(1)" transform="translate(830.395257, 54.203822)">
                                <path d="M0.959712499,9.4178113 C1.26167359,6.45049904 2.4824031,6.50589493 4.82506439,6.29698464 C37.8250301,4.42127411 49.3498335,3.78760199 83.543028,0.647966931 C85.6507655,0.635353997 86.7107021,3.14007576 85.8106009,5.81235824 C69.8881109,53.0841452 66.2536257,52.6159851 50.0625217,99.9664662 C49.352069,103.145212 49.4914387,105.036971 51.7694722,105.364793 C60.6214966,105.364793 63.6893932,105.364793 68.0549674,100.536106 C76.1596855,90.1113451 78.5310205,86.7903636 86.955498,74.4268666 C88.5930158,72.5881418 90.4122565,74.237727 90.4745631,76.9408489 C89.149585,98.290254 88.9925927,100.536106 88.093644,123.804381 C87.7021145,126.851215 86.7191855,127.695042 84.4619813,127.695042 C47.0605558,126.046883 44.5699786,125.670991 10.2025219,123.804381 C7.44036806,123.434421 5.48629317,120.571993 6.89371783,117.305609 C20.6604199,88.991323 35.2720271,59.8063428 50.7285392,29.7506688 L20.8827141,29.7506688 C14.9879636,37.8500562 8.95672613,45.0580912 2.78900163,51.3747738 C1.90725356,52.2778172 0.681982135,52.0191641 0.616044444,50.5068033 C-0.23266243,31.0406829 0.959712499,29.0910901 0.959712499,9.4178113 Z" id="Path-36" fill="#FFFFFF"></path>
                                <path d="M8.31268792,12.2535079 C6.95308605,12.333768 6.04061439,13.6325924 6.04061439,15.3074188 C6.04061439,19.0395936 6.04061439,28.3896851 6.04061439,38.3029148 C6.19623002,39.8491126 7.37375745,40.3216754 8.31268792,39.4395151 C11.4962897,35.6600993 15.1598486,31.127616 19.3033647,25.842065 L57.4141696,25.842065 L16.9113722,112.87587 L15.2260177,116.719495 C13.8639898,118.930659 13.8639898,120.063578 15.2260177,120.118254 C39.0648999,121.075208 62.0243894,123.36703 82.1866035,123.36703 C83.7131961,123.36703 84.4172938,122.830093 84.6580689,120.760535 C85.194508,106.50919 86.2473828,101.890866 87.1080295,87.4116117 C87.0297008,85.3928554 85.6470412,84.4586134 84.366924,85.4687493 C74.1153401,98.9867708 68.0845471,109.092838 62.7586294,109.092838 C59.2080177,109.092838 53.9755075,109.092838 47.0610989,109.092838 C44.8339654,108.703133 44.277182,106.800177 45.3907488,103.383971 C47.0610989,98.2596622 62.9968903,59.6443219 78.4744889,14.3995737 C79.9946439,9.9557944 76.5643011,10.1286453 75.6095754,10.1327779 C53.0400885,10.2304712 30.6077926,10.9373812 8.31268792,12.2535079 Z" id="Path-35" fill="#FF5D00"></path>
                            </g>
                            <g id="z-(2)" transform="translate(922.996467, 59.503400)">
                                <path d="M0.482483286,11.9400291 C0.806237055,8.72253861 2.11506718,8.782605 4.62679943,8.55608118 C40.008388,6.52222689 62.8632827,3.45381134 99.5242159,0.0494692606 C101.78407,0.0357929124 102.920503,2.75169127 101.955441,5.64927762 C84.883817,56.906615 77.7255898,54.6692698 60.3659663,106.011936 C59.6042398,109.458686 60.3514673,109.314764 62.7939076,109.670226 C72.2847867,109.670226 71.1747251,109.032514 75.8553649,103.796713 C81.5861495,93.1329023 86.4148208,80.530225 95.4472967,67.1243443 C97.2029949,65.1305941 100.022273,65.4264255 100.089076,68.3574514 C98.6684736,91.5068546 98.0206113,110.533003 97.056785,135.763059 C96.6369987,139.066776 95.5831312,139.981747 93.1630236,139.981747 C53.0623198,138.194629 45.6239398,139.970993 8.77616773,137.947006 C5.81466797,137.545854 3.71956658,134.442091 5.22856573,130.900314 C27.3689428,84.8480588 49.1524495,41.3381827 53.2154957,33.7795468 C53.3489295,33.0512014 52.9324161,32.5746792 51.3916079,32.5746792 C46.1922236,32.5746792 31.393919,32.3994839 22.7715203,32.5746792 C22.1650652,32.5870015 21.8148772,33.6029833 21.4954145,34.2308174 C16.4120015,44.2211553 14.1531842,53.191124 5.22856573,68.4969732 C4.50498196,69.7379298 3.03289829,69.1539884 2.89878522,67.5558229 C0.659857066,40.8755164 0.482483286,33.2719895 0.482483286,11.9400291 Z" id="Path-36" fill="#FFFFFF"></path>
                                <path d="M8.8010956,15.0623439 C7.34945692,15.1436721 6.37547423,16.5536698 6.37547423,18.3648075 C6.37547423,22.4007378 6.37547423,40.7361455 6.37547423,51.4561965 C6.54160645,53.1282369 7.79871175,53.6392607 8.8010956,52.6853029 C12.1998467,48.5982867 16.4005042,40.920324 21.4030682,29.6514147 L60.7140736,29.6514147 L14.6750879,127.640043 L12.8758363,131.796494 C11.421762,134.187621 11.421762,135.412747 12.8758363,135.471872 C38.3257617,136.506711 67.2422279,138.290505 88.7670143,138.290505 C90.3967747,138.290505 91.1484557,137.709867 91.4055025,135.471872 C91.9781944,120.060633 94.9884978,105.40543 95.9073075,89.7477334 C95.8236852,87.5646739 94.3475849,86.5543955 92.9809567,87.6467447 C82.0365658,102.264976 78.0160088,114.839447 72.3301631,114.839447 C68.5395992,114.839447 62.9534735,114.839447 55.5717858,114.839447 C52.0578387,115.126464 51.4634276,113.06863 53.7885526,108.665945 C57.27624,102.061917 72.3301631,70.5551922 95.9073075,14.0887682 C97.5301954,9.28331718 93.8680283,9.47023615 92.8487818,9.47470508 C68.4509084,11.6826614 36.2775838,13.5229711 8.8010956,15.0623439 Z" id="Path-35" fill="#FF5D00"></path>
                            </g>
                            <g id="a" transform="translate(1031.810277, 40.063694)">
                                <path d="M0.236619768,1.61798326 C2.96471818,32.4717289 2.81716506,36.9222778 5.14162923,68.5275768 C5.56758742,71.7887644 7.68188502,72.2512713 9.95282312,70.8934358 C20.2131346,57.0639144 31.7749999,40.7967716 50.1988544,41.5870363 C68.6227089,42.3773011 73.1017996,49.2871492 73.6477969,51.5622814 C74.0425703,52.9786035 74.0425703,58.633702 73.6477969,68.5275768 C45.9232152,73.6222433 24.1086917,88.5326742 8.20422649,113.258869 C-11.0428853,152.771788 26.5459128,165.339402 36.432301,164.882563 C46.3186892,164.425724 57.6504604,165.134026 72.4111222,154.923477 C73.6477969,154.123417 76.6920019,150.649434 79.4253822,156.339509 C82.1587625,162.029584 84.3475378,163.507203 87.7258367,163.507203 C91.1041356,163.507203 108.865429,164.419166 122.930644,164.419166 C124.141491,164.289427 123.8868,161.969251 121.637994,160.503851 C116.213519,156.077786 112.932258,153.312516 103.686526,144.115968 C102.598816,142.891144 101.827263,139.790852 101.784702,135.150203 C101.607159,115.791366 101.607159,96.6716889 101.784702,77.7911724 C101.741204,53.1758519 95.7984572,35.059594 83.9564618,23.4423985 C63.7822741,4.31033131 31.4811397,10.700663 20.6785886,21.8541568 C20.5190822,22.0188451 20.2595572,22.4209382 19.6997442,21.6152217 C13.0172103,11.9973175 11.6197849,10.0112553 2.87619226,0.936743892 C1.85044576,-0.127824028 0.178537022,-0.114954476 0.236619768,1.61798326 Z" id="Path-37" fill="#FFFFFF"></path>
                                <path d="M3.73408628,13.4583692 C3.55330733,9.24787346 7.43607598,11.9771191 8.56280312,13.4583692 C14.2334045,20.3805106 14.7079865,22.5983827 17.7468907,25.0816461 C19.3298848,26.4405476 21.6917096,26.3730857 23.6416984,24.7597299 C27.7428082,21.2248061 31.7849219,14.8140003 54.191628,15.1826899 C76.5983341,15.5513794 92.6684623,32.1057194 96.6158069,59.3535965 C100.563152,86.6014737 99.0332226,97.1850587 98.7192588,139.612434 C98.8250726,142.38261 99.6581073,144.05867 100.230165,144.793772 C105.384419,151.417061 108.54543,154.848504 112.654802,158.430498 C114.09626,160.396866 113.893503,161.474061 111.645698,161.474061 C106.315659,161.474061 90.4033853,162.017846 86.8311902,159.715463 C84.9730615,158.295606 81.9618451,155.124962 80.039305,149.84949 C79.7070555,148.782786 78.5768341,146.885215 76.6938006,148.152142 C69.9105901,152.715967 58.5860967,161.825547 43.0361437,161.825547 C23.1042854,161.825547 6.76669727,150.428266 6.76669727,137.912862 C6.76669727,125.397458 11.8343882,104.602869 35.5395892,88.0937718 C53.4844966,75.5963362 59.6842834,73.594006 73.1729194,72.4962095 C75.5879398,72.2996588 76.3885827,70.8733417 76.6938006,68.9916776 C77.3377356,64.3584856 77.3377356,58.457231 76.6938006,51.2879135 C76.1115432,44.9536801 68.3205222,40.7903659 53.3207376,38.7979708 C30.8210608,35.8093782 17.5039098,58.8172932 10.4980468,64.4568111 C8.71482058,65.3001636 7.11117027,64.9801817 6.72289862,62.6247602 C5.47330925,45.2370464 5.22634898,31.750598 3.73408628,13.4583692 Z" id="Path-38" fill="#FF5D00"></path>
                                <path d="M67.3590895,93.7075642 C69.6945261,93.5373583 71.3730325,94.4870887 72.3946086,96.5567553 C72.5780421,113.272375 71.1387043,123.868358 68.0765953,128.344703 C63.4834318,135.059221 53.7425091,145.194011 49.824944,146.241706 C37.5427828,148.753318 31.8448023,146.208929 30.7368943,142.108797 C28.7769633,134.855509 29.2526531,127.749041 32.3270068,121.181489 C38.0073539,110.9735 43.1382394,100.115779 67.3590895,93.7075642 Z" id="Path-39" fill="#FFFFFF"></path>
                                <ellipse id="Oval-4" fill="#0F0F0F" transform="translate(52.415258, 122.016337) rotate(35.000000) translate(-52.415258, -122.016337) " cx="52.4152576" cy="122.016337" rx="12.9809469" ry="25.1451228"></ellipse>
                            </g>
                        </g>
                    </g>
                </g>
            </g>
        </g>
    </g>
</svg>