<?xml version="1.0" encoding="UTF-8"?>
<svg width="512px" height="344px" viewBox="0 0 512 344" version="1.1" xmlns="http://www.w3.org/2000/svg" xmlns:xlink="http://www.w3.org/1999/xlink">
    <!-- Generator: Sketch 53.2 (72643) - https://sketchapp.com -->
    <title>couponIcon</title>
    <desc>Created with Sketch.</desc>
    <g id="Admin-Page" stroke="none" stroke-width="1" fill="none" fill-rule="evenodd">
        <g id="couponIcon" fill-rule="nonzero">
            <path d="M452.355469,343.75 L59.644531,343.75 C26.703125,343.75 0,317.042969 0,284.101562 L0,60.148438 C0,27.207031 26.703125,0.5 59.644531,0.5 L452.351562,0.5 C485.292969,0.5 512,27.207031 512,60.148438 L512,284.101562 C512,317.042969 485.292969,343.75 452.355469,343.75 Z" id="Path" fill="#FAFAFA"></path>
            <path d="M235.515625,265.988281 L96.722656,265.988281 C79.601562,265.988281 65.71875,252.109375 65.71875,234.984375 C65.71875,217.859375 79.601562,203.980469 96.722656,203.980469 L235.515625,203.980469 C252.640625,203.980469 266.523438,217.859375 266.523438,234.984375 C266.519531,252.109375 252.640625,265.988281 235.515625,265.988281 Z" id="Path" fill="#DD6642"></path>
            <path d="M255.03125,160.707031 L77.207031,160.707031 C77.207031,160.707031 62.304688,172.902344 53.953125,192.519531 C49.226562,203.617188 59.171875,215.328125 70.933594,212.65625 C81.582031,210.234375 94.460938,209.460938 105.929688,214.730469 C131.230469,226.355469 166.121094,225.671875 166.121094,225.671875 C166.121094,225.671875 201.007812,226.355469 226.308594,214.730469 C237.78125,209.460938 250.65625,210.234375 261.304688,212.65625 C273.066406,215.328125 283.011719,203.617188 278.285156,192.519531 C269.933594,172.902344 255.03125,160.707031 255.03125,160.707031 Z" id="Path" fill="#29CE69"></path>
            <path d="M241.488281,179.925781 L90.75,179.925781 C58.117188,179.925781 58.117188,147.292969 58.117188,147.292969 C58.117188,87.644531 106.472656,39.292969 166.121094,39.292969 C225.765625,39.292969 274.121094,87.644531 274.121094,147.292969 C274.121094,147.292969 274.121094,179.925781 241.488281,179.925781 L241.488281,179.925781 Z" id="Path" fill="#FFAA75"></path>
            <path d="M258.855469,304.957031 L73.386719,304.957031 C62.625,304.957031 53.902344,296.234375 53.902344,285.472656 C53.902344,274.714844 62.625,265.992188 73.386719,265.992188 L258.855469,265.992188 C269.613281,265.992188 278.335938,274.714844 278.335938,285.472656 C278.339844,296.234375 269.613281,304.957031 258.855469,304.957031 L258.855469,304.957031 Z" id="Path" fill="#FFAA75"></path>
            <path d="M452.351562,0.5 L266.617188,0.5 L210.417969,343.75 L452.351562,343.75 C485.292969,343.75 512,317.042969 512,284.101562 L512,60.144531 C512,27.203125 485.292969,0.5 452.351562,0.5 Z" id="Path" fill="#FFF8B6"></path>
            <path d="M405.820312,268.007812 L512,268.007812 L512,76.242188 L405.820312,76.242188 C383.4375,76.242188 362.359375,86.765625 348.90625,104.652344 L316.71875,147.453125 C305.730469,162.0625 305.730469,182.183594 316.71875,196.800781 L348.90625,239.597656 C362.359375,257.484375 383.4375,268.007812 405.820312,268.007812 Z" id="Path" fill="#FF7000"></path>
            <g id="Group" transform="translate(95.000000, 76.000000)" fill="#FFFCDC">
                <path d="M36.257812,15.695312 C36.257812,19.960938 32.796875,23.421875 28.53125,23.421875 C24.265625,23.421875 20.804688,19.960938 20.804688,15.695312 C20.804688,11.425781 24.265625,7.96875 28.53125,7.96875 C32.796875,7.96875 36.257812,11.425781 36.257812,15.695312 Z" id="Path"></path>
                <path d="M78.847656,7.96875 C78.847656,12.234375 75.386719,15.695312 71.121094,15.695312 C66.851562,15.695312 63.394531,12.234375 63.394531,7.96875 C63.394531,3.703125 66.851562,0.242188 71.121094,0.242188 C75.386719,0.242188 78.847656,3.703125 78.847656,7.96875 Z" id="Path"></path>
                <path d="M115.417969,63.660156 C115.417969,67.929688 111.957031,71.386719 107.691406,71.386719 C103.425781,71.386719 99.964844,67.929688 99.964844,63.660156 C99.964844,59.394531 103.425781,55.933594 107.691406,55.933594 C111.957031,55.933594 115.417969,59.394531 115.417969,63.660156 Z" id="Path"></path>
                <path d="M63.394531,55.933594 C63.394531,60.203125 59.933594,63.660156 55.667969,63.660156 C51.398438,63.660156 47.941406,60.203125 47.941406,55.933594 C47.941406,51.667969 51.398438,48.207031 55.667969,48.207031 C59.933594,48.207031 63.394531,51.667969 63.394531,55.933594 Z" id="Path"></path>
                <path d="M130.871094,19.234375 C130.871094,23.5 127.410156,26.960938 123.144531,26.960938 C118.875,26.960938 115.417969,23.5 115.417969,19.234375 C115.417969,14.96875 118.875,11.507812 123.144531,11.507812 C127.410156,11.507812 130.871094,14.96875 130.871094,19.234375 Z" id="Path"></path>
                <path d="M15.574219,63.660156 C15.574219,67.929688 12.113281,71.386719 7.847656,71.386719 C3.578125,71.386719 0.121094,67.929688 0.121094,63.660156 C0.121094,59.394531 3.578125,55.933594 7.847656,55.933594 C12.113281,55.933594 15.574219,59.394531 15.574219,63.660156 Z" id="Path"></path>
                <path d="M289.382812,139.542969 C283.347656,133.507812 283.347656,123.726562 289.382812,117.691406 L354.707031,52.363281 C360.738281,46.332031 370.523438,46.332031 376.558594,52.363281 C382.59375,58.398438 382.59375,68.183594 376.558594,74.21875 L311.234375,139.542969 C301.601562,148.789062 292.398438,142.558594 289.382812,139.542969 Z" id="Path"></path>
                <path d="M381.085938,128.957031 C381.085938,137.488281 374.167969,144.410156 365.632812,144.410156 C357.097656,144.410156 350.179688,137.488281 350.179688,128.957031 C350.179688,120.421875 357.097656,113.503906 365.632812,113.503906 C374.167969,113.503906 381.085938,120.421875 381.085938,128.957031 Z" id="Path"></path>
                <path d="M315.761719,63.292969 C315.761719,71.828125 308.839844,78.746094 300.308594,78.746094 C291.773438,78.746094 284.855469,71.828125 284.855469,63.292969 C284.855469,54.757812 291.773438,47.839844 300.308594,47.839844 C308.839844,47.839844 315.761719,54.757812 315.761719,63.292969 Z" id="Path"></path>
            </g>
        </g>
    </g>
</svg>