<?xml version="1.0" encoding="UTF-8"?>
<svg width="279px" height="469px" viewBox="0 0 279 469" version="1.1" xmlns="http://www.w3.org/2000/svg" xmlns:xlink="http://www.w3.org/1999/xlink">
    <!-- Generator: Sketch 53.2 (72643) - https://sketchapp.com -->
    <title>drinkIcon</title>
    <desc>Created with Sketch.</desc>
    <g id="Admin-Page" stroke="none" stroke-width="1" fill="none" fill-rule="evenodd">
        <g id="drinkIcon" fill-rule="nonzero">
            <path d="M230.27,468.293 L48.023,468.293 C41.126,468.293 35.535,462.702 35.535,455.805 L35.535,427.643 L242.757,427.643 L242.757,455.805 C242.757,462.702 237.166,468.293 230.27,468.293 Z" id="Path" fill="#D5D6DB"></path>
            <path d="M253.143,446.814 L25.15,446.814 C11.356,446.814 0.174,435.632 0.174,421.838 L0.174,72.746 C16.311,56.609 25.359,47.561 41.496,31.424 L236.797,31.424 C252.934,47.561 261.982,56.609 278.119,72.746 L278.119,421.838 C278.118,435.632 266.936,446.814 253.143,446.814 Z" id="Path" fill="#E1E6E9"></path>
            <g id="Group" fill="#D5D6DB">
                <path d="M236.525,31.424 L41.767,31.424 C25.524,47.667 16.416,56.774 0.174,73.017 L0.174,79.302 C12.739,66.737 21.461,58.015 35.482,43.994 L230.24,43.994 C246.483,60.237 255.591,69.344 271.834,85.587 L271.834,434.243 C271.834,435.765 271.645,437.238 271.387,438.685 C275.531,434.203 278.119,428.258 278.119,421.673 L278.119,73.017 C261.875,56.774 252.768,47.668 236.525,31.424 Z" id="Path"></path>
                <path d="M236.665,31.424 L41.628,31.424 C33.007,31.424 26.018,24.435 26.018,15.814 L26.018,15.61 C26.018,6.989 33.007,0 41.628,0 L236.665,0 C245.286,0 252.275,6.989 252.275,15.61 L252.275,15.815 C252.275,24.436 245.286,31.424 236.665,31.424 Z" id="Path"></path>
            </g>
            <path d="M139.147,140.291 C86.562,140.291 43.934,182.919 43.934,235.503 C43.934,235.503 81.536,263.854 135.212,235.503 C179.866,212.027 234.359,235.503 234.359,235.503 C234.359,182.919 191.731,140.291 139.147,140.291 Z" id="Path" fill="#27A2DB"></path>
            <path d="M139.146,352.808 C191.731,352.808 234.359,310.18 234.359,257.596 C234.359,257.596 196.757,229.245 143.081,257.596 C98.427,281.072 43.934,257.596 43.934,257.596 C43.934,310.18 86.562,352.808 139.146,352.808 Z" id="Path" fill="#E56353"></path>
        </g>
    </g>
</svg>