<?xml version="1.0" encoding="UTF-8"?>
<svg width="420px" height="512px" viewBox="0 0 420 512" version="1.1" xmlns="http://www.w3.org/2000/svg" xmlns:xlink="http://www.w3.org/1999/xlink">
    <!-- Generator: Sketch 53.2 (72643) - https://sketchapp.com -->
    <title>pizzaIcon</title>
    <desc>Created with Sketch.</desc>
    <g id="Admin-Page" stroke="none" stroke-width="1" fill="none" fill-rule="evenodd">
        <g id="pizzaIcon" fill-rule="nonzero">
            <path d="M87.824219,388.90625 L87.824219,442.554688 C87.824219,453.148438 96.414062,461.738281 107.007812,461.738281 C117.601562,461.738281 126.191406,453.148438 126.191406,442.554688 L126.191406,308.894531 L172.371094,340.363281 L172.371094,404.964844 C172.371094,415.558594 180.960938,424.144531 191.554688,424.144531 C202.148438,424.144531 210.734375,415.558594 210.734375,404.964844 L210.734375,366.507812 L308.636719,433.21875 L308.636719,482.546875 C308.636719,493.144531 317.226562,501.730469 327.820312,501.730469 C338.414062,501.730469 347,493.140625 347,482.546875 L347,459.363281 L409.636719,502.039062 L409.636719,78.429688 C264.160156,78.429688 135.816406,151.765625 59.542969,263.480469 L87.824219,282.75 L87.824219,308.898438" id="Path" fill="#FFE192"></path>
            <path d="M409.636719,78.429688 L409.636719,30.074219 C409.636719,18.660156 400.121094,9.535156 388.714844,10.019531 C315.660156,13.117188 244.109375,32.414062 179.304688,66.605469 C114.511719,100.789062 58.234375,148.933594 14.503906,207.441406 C7.660156,216.59375 9.835938,229.609375 19.28125,236.042969 L59.546875,263.480469 C135.816406,151.765625 264.160156,78.429688 409.636719,78.429688 Z" id="Path" fill="#FF6E37"></path>
            <g id="Group" transform="translate(141.000000, 84.000000)" fill="#FF5A5A">
                <path d="M85.542969,143.589844 C75.859375,121.082031 49.765625,110.6875 27.257812,120.371094 C4.75,130.054688 -5.644531,156.148438 4.039062,178.65625 C13.71875,201.164062 39.816406,211.558594 62.324219,201.875 C84.832031,192.195312 95.226562,166.097656 85.542969,143.589844 Z" id="Path"></path>
                <path d="M233.675781,164.085938 C223.996094,141.578125 197.898438,131.183594 175.390625,140.867188 C152.882812,150.550781 142.488281,176.644531 152.171875,199.152344 C161.855469,221.660156 187.949219,232.058594 210.457031,222.375 C232.964844,212.691406 243.359375,186.59375 233.675781,164.085938 L233.675781,164.085938 Z" id="Path"></path>
                <path d="M258.757812,266.613281 C236.253906,276.296875 225.855469,302.390625 235.539062,324.898438 C241.675781,339.164062 254.40625,348.554688 268.636719,351.058594 L268.636719,263.667969 C265.308594,264.253906 261.996094,265.21875 258.757812,266.613281 L258.757812,266.613281 Z" id="Path"></path>
                <path d="M177.578125,291.507812 C167.894531,269.003906 141.800781,258.605469 119.292969,268.289062 C105.894531,274.054688 96.792969,285.632812 93.65625,298.804688 L162.148438,345.476562 C179.132812,333.699219 186.0625,311.226562 177.578125,291.507812 L177.578125,291.507812 Z" id="Path"></path>
                <path d="M198.917969,0.152344 C174.976562,4.117188 151.714844,10.089844 129.308594,17.890625 C125.128906,28.425781 124.957031,40.554688 129.792969,51.785156 C139.476562,74.292969 165.570312,84.691406 188.078125,75.007812 C210.585938,65.324219 220.980469,39.226562 211.296875,16.71875 C208.433594,10.066406 204.132812,4.484375 198.917969,0.152344 L198.917969,0.152344 Z" id="Path"></path>
            </g>
            <path d="M410.371094,8.363281 C404.398438,2.636719 396.558594,-0.320312 388.292969,0.0273438 C314.140625,3.175781 240.257812,23.136719 174.636719,57.761719 C109.027344,92.378906 50.882812,142.066406 6.492188,201.453125 C1.535156,208.082031 -0.445312,216.234375 0.917969,224.402344 C2.285156,232.574219 6.804688,239.644531 13.648438,244.308594 L53.914062,271.746094 C53.914062,271.746094 53.917969,271.75 53.917969,271.75 L77.824219,288.039062 L77.824219,308.902344 C77.824219,314.425781 82.300781,318.902344 87.824219,318.902344 C93.347656,318.902344 97.824219,314.425781 97.824219,308.902344 L97.824219,282.753906 C97.824219,279.445312 96.1875,276.351562 93.457031,274.488281 L73.558594,260.929688 C82.378906,248.652344 91.871094,236.886719 101.960938,225.628906 C112.332031,214.054688 123.378906,203.03125 135.039062,192.746094 C146.261719,182.847656 157.949219,173.496094 170.152344,164.828125 C182.832031,155.824219 196.019531,147.589844 209.605469,140.023438 C223.214844,132.4375 237.332031,125.695312 251.738281,119.757812 C253.542969,119.015625 255.355469,118.28125 257.171875,117.558594 C257.074219,125.089844 258.542969,132.617188 261.605469,139.738281 C267.34375,153.078125 277.933594,163.386719 291.425781,168.757812 C297.9375,171.355469 304.75,172.648438 311.554688,172.648438 C318.847656,172.648438 326.132812,171.160156 333.03125,168.195312 C346.371094,162.453125 356.675781,151.863281 362.050781,138.375 C367.425781,124.882812 367.222656,110.109375 361.484375,96.769531 C360.71875,94.984375 359.847656,93.25 358.898438,91.558594 C372.417969,89.886719 386.019531,88.890625 399.636719,88.5625 L399.636719,339.96875 C383.398438,345.539062 370.628906,358.652344 365.441406,375.019531 C359.699219,393.140625 364.09375,413.441406 376.757812,427.601562 C382.933594,434.507812 390.875,439.753906 399.636719,442.753906 L399.636719,483.125 L352.636719,451.097656 C349.570312,449.011719 345.605469,448.785156 342.328125,450.519531 C339.054688,452.253906 337.003906,455.65625 337.003906,459.363281 L337.003906,482.546875 C337.003906,487.613281 332.882812,491.730469 327.820312,491.730469 C322.757812,491.730469 318.636719,487.609375 318.636719,482.546875 L318.636719,433.21875 C318.636719,431.992188 318.410156,430.796875 317.992188,429.683594 C332.074219,414.203125 336.3125,391.421875 327.765625,371.558594 C315.921875,344.023438 283.878906,331.257812 256.339844,343.105469 C244.953125,348.003906 235.667969,356.707031 229.902344,367.464844 L216.367188,358.242188 C213.304688,356.15625 209.339844,355.933594 206.0625,357.664062 C202.785156,359.398438 200.734375,362.800781 200.734375,366.503906 L200.734375,404.964844 C200.734375,410.027344 196.617188,414.144531 191.554688,414.144531 C186.492188,414.144531 182.371094,410.023438 182.371094,404.964844 L182.371094,340.363281 C182.371094,337.054688 180.734375,333.960938 178.003906,332.097656 L131.820312,300.632812 C128.761719,298.546875 124.792969,298.320312 121.515625,300.054688 C118.238281,301.785156 116.191406,305.191406 116.191406,308.894531 L116.191406,442.554688 C116.191406,447.621094 112.070312,451.738281 107.007812,451.738281 C101.945312,451.738281 97.828125,447.617188 97.828125,442.554688 L97.828125,388.90625 C97.828125,383.382812 93.347656,378.90625 87.824219,378.90625 C82.300781,378.90625 77.824219,383.382812 77.824219,388.90625 L77.824219,442.554688 C77.824219,458.648438 90.917969,471.738281 107.007812,471.738281 C123.097656,471.738281 136.191406,458.648438 136.191406,442.554688 L136.191406,327.8125 L162.371094,345.648438 L162.371094,404.964844 C162.371094,421.054688 175.460938,434.144531 191.554688,434.144531 C207.644531,434.144531 220.738281,421.054688 220.738281,404.964844 L220.738281,385.421875 L229.019531,391.066406 C229.023438,391.066406 229.023438,391.070312 229.027344,391.070312 L297.519531,437.742188 L298.636719,438.503906 L298.636719,482.546875 C298.636719,498.636719 311.726562,511.730469 327.820312,511.730469 C343.910156,511.730469 357.003906,498.636719 357.003906,482.546875 L357.003906,478.273438 L404.007812,510.304688 C410.53125,514.75 419.640625,509.898438 419.640625,502.039062 L419.640625,30.078125 C419.636719,21.800781 416.347656,14.089844 410.371094,8.363281 L410.371094,8.363281 Z M246.539062,378.800781 C250.03125,371.0625 256.242188,364.917969 264.242188,361.476562 C281.652344,353.988281 301.902344,362.054688 309.394531,379.460938 C314.933594,392.34375 311.980469,407.167969 302.523438,416.949219 L265.523438,391.738281 L246.539062,378.800781 Z M20.648438,221.113281 C20.191406,218.375 20.855469,215.648438 22.511719,213.425781 C65.136719,156.402344 120.96875,108.691406 183.96875,75.449219 C246.988281,42.199219 317.929688,23.03125 389.136719,20.011719 C389.285156,20.003906 389.433594,20 389.578125,20 C392.179688,20 394.636719,20.984375 396.53125,22.800781 C398.53125,24.722656 399.632812,27.304688 399.632812,30.074219 L399.632812,68.542969 C383.644531,68.90625 367.671875,70.171875 351.824219,72.296875 C347.304688,72.90625 342.777344,73.542969 338.28125,74.285156 C314.101562,78.289062 290.125,84.398438 267.019531,92.445312 C250.671875,98.136719 234.679688,104.984375 219.105469,112.527344 C203.300781,120.175781 187.960938,128.921875 173.261719,138.523438 C158.804688,147.96875 144.917969,158.226562 131.644531,169.269531 C118.253906,180.414062 105.621094,192.441406 93.652344,205.09375 C81.902344,217.519531 70.964844,230.734375 60.792969,244.472656 C59.519531,246.191406 58.257812,247.917969 57.011719,249.652344 L24.910156,227.777344 C22.621094,226.21875 21.105469,223.851562 20.648438,221.113281 Z M343.46875,130.96875 C340.070312,139.496094 333.558594,146.191406 325.125,149.820312 C316.691406,153.445312 307.355469,153.574219 298.828125,150.175781 C290.300781,146.78125 283.605469,140.265625 279.976562,131.832031 C276.957031,124.808594 276.367188,117.152344 278.21875,109.863281 C293.222656,104.832031 308.535156,100.601562 324.03125,97.382812 C328.265625,96.503906 332.503906,95.664062 336.757812,94.902344 C339.414062,97.753906 341.542969,101.023438 343.109375,104.671875 C346.738281,113.105469 346.863281,122.441406 343.46875,130.96875 Z M385.726562,404.945312 C382.097656,396.515625 381.972656,387.175781 385.367188,378.648438 C388.195312,371.550781 393.183594,365.726562 399.636719,361.878906 L399.636719,420.851562 C393.527344,417.199219 388.628906,411.691406 385.726562,404.945312 L385.726562,404.945312 Z" id="Shape" fill="#000000"></path>
            <path d="M165.671875,295.625 C172.183594,298.21875 178.996094,299.511719 185.800781,299.511719 C193.09375,299.511719 200.378906,298.027344 207.277344,295.058594 C234.8125,283.210938 247.578125,251.167969 235.730469,223.632812 C229.992188,210.292969 219.402344,199.984375 205.910156,194.613281 C192.421875,189.238281 177.644531,189.4375 164.304688,195.179688 C150.964844,200.917969 140.660156,211.507812 135.285156,225 C129.910156,238.488281 130.113281,253.265625 135.851562,266.605469 C141.589844,279.945312 152.179688,290.25 165.671875,295.625 Z M153.867188,232.402344 C157.261719,223.875 163.777344,217.179688 172.210938,213.550781 C176.570312,211.675781 181.175781,210.734375 185.785156,210.734375 C190.085938,210.734375 194.390625,211.554688 198.507812,213.195312 C207.035156,216.589844 213.730469,223.105469 217.359375,231.535156 C224.847656,248.941406 216.777344,269.195312 199.371094,276.683594 C190.941406,280.3125 181.601562,280.4375 173.074219,277.042969 C164.546875,273.644531 157.851562,267.128906 154.226562,258.699219 C150.597656,250.265625 150.46875,240.925781 153.867188,232.402344 L153.867188,232.402344 Z" id="Shape" fill="#000000"></path>
            <path d="M313.804688,316.117188 C320.316406,318.714844 327.128906,320.007812 333.933594,320.007812 C341.226562,320.007812 348.511719,318.519531 355.410156,315.550781 C368.75,309.8125 379.054688,299.222656 384.429688,285.734375 C389.804688,272.242188 389.605469,257.46875 383.863281,244.125 C378.125,230.789062 367.535156,220.480469 354.046875,215.105469 C340.554688,209.730469 325.777344,209.933594 312.441406,215.671875 C299.101562,221.410156 288.792969,232 283.417969,245.492188 C278.046875,258.984375 278.246094,273.757812 283.984375,287.097656 C289.722656,300.4375 300.3125,310.746094 313.804688,316.117188 L313.804688,316.117188 Z M302,252.894531 C305.394531,244.367188 311.910156,237.675781 320.34375,234.046875 C324.703125,232.171875 329.308594,231.230469 333.917969,231.230469 C338.21875,231.230469 342.523438,232.046875 346.640625,233.6875 C355.167969,237.085938 361.863281,243.601562 365.492188,252.03125 C369.117188,260.464844 369.246094,269.804688 365.847656,278.332031 C362.449219,286.855469 355.9375,293.550781 347.503906,297.179688 C339.074219,300.804688 329.734375,300.933594 321.207031,297.535156 C312.679688,294.140625 305.984375,287.625 302.355469,279.195312 C298.730469,270.761719 298.605469,261.421875 302,252.894531 L302,252.894531 Z" id="Shape" fill="#000000"></path>
            <path d="M87.832031,358.910156 C92.0625,358.910156 95.914062,356.132812 97.285156,352.144531 C98.660156,348.148438 97.292969,343.53125 93.917969,340.964844 C90.679688,338.503906 86.1875,338.257812 82.691406,340.332031 C79.074219,342.476562 77.1875,346.824219 78.042969,350.9375 C79,355.519531 83.144531,358.910156 87.832031,358.910156 Z" id="Path" fill="#000000"></path>
        </g>
    </g>
</svg>