<?xml version="1.0" encoding="UTF-8"?>
<svg width="537px" height="469px" viewBox="0 0 537 469" version="1.1" xmlns="http://www.w3.org/2000/svg" xmlns:xlink="http://www.w3.org/1999/xlink">
    <!-- Generator: Sketch 53.2 (72643) - https://sketchapp.com -->
    <title>saladsIcon</title>
    <desc>Created with Sketch.</desc>
    <g id="Admin-Page" stroke="none" stroke-width="1" fill="none" fill-rule="evenodd">
        <g id="saladsIcon" fill-rule="nonzero">
            <path d="M272.62539,469 L375.445696,469 C384.757157,469 390.501727,458.836071 385.695812,450.868226 L385.601946,450.708681 C378.94688,439.662564 377.651536,425.772799 383.583837,414.323128 C388.765215,404.318743 397.184953,396.059964 407.791759,390.992077 C480.246564,356.399054 531.628557,317.751721 536.969506,238.89915 C537.47638,231.428709 531.600397,225 524.109928,225 L272.634777,225 L12.8900722,225 C5.39960267,225 -0.476379731,231.428709 0.0304941499,238.89915 C5.37144301,317.742336 56.7440495,356.399054 129.208241,390.992077 C139.80566,396.050579 148.234785,404.318743 153.416163,414.323128 C159.348464,425.772799 158.05312,439.662564 151.398054,450.708681 L151.304188,450.868226 C146.498273,458.845456 152.242843,469 161.554304,469 L272.62539,469 Z" id="Path" fill="#E6E6E6"></path>
            <path d="M338.660316,413 L257.339684,413 C252.184179,413 248,408.7535 248,403.5 C248,398.2465 252.184179,394 257.339684,394 L338.660316,394 C343.815821,394 348,398.2465 348,403.5 C348,408.7535 343.815821,413 338.660316,413 Z" id="Path" fill="#FFFFFF"></path>
            <path d="M228.531006,413 L196.468994,413 C191.242109,413 187,408.7535 187,403.5 C187,398.2465 191.242109,394 196.468994,394 L228.531006,394 C233.757891,394 238,398.2465 238,403.5 C238,408.7535 233.757891,413 228.531006,413 Z" id="Path" fill="#FFFFFF"></path>
            <path d="M337.588235,441 L196.411765,441 C191.216471,441 187,436.7535 187,431.5 C187,426.2465 191.216471,422 196.411765,422 L337.588235,422 C342.783529,422 347,426.2465 347,431.5 C347,436.7535 342.783529,441 337.588235,441 Z" id="Path" fill="#FFFFFF"></path>
            <path d="M384.495306,0 C337.825732,0 300,37.8278333 300,84.5 C300,91.1003889 300.835565,97.4942222 302.262597,103.662722 C307.022499,108.554333 314.289095,110.234944 320.654408,107.286833 L324.334648,105.587444 C334.577357,100.846056 346.416088,107.681167 347.430032,118.919667 L347.796178,122.956889 C348.509694,130.806 354.724793,137.030833 362.582857,137.735 L366.619854,138.101167 C377.85773,139.115167 384.692462,150.963944 379.951336,161.197833 L378.252042,164.878278 C377.68874,166.089444 377.510361,167.366333 377.266263,168.633833 C379.660297,168.840389 382.063719,169 384.504694,169 C431.174268,169 469,131.162778 469,84.5 C468.990612,37.8278333 431.16488,0 384.495306,0 Z" id="Path" fill="#D13834"></path>
            <path d="M469.20607,90 C466.679382,134.080492 429.82556,169.083943 384.599725,169.083943 C382.148461,169.083943 379.716052,168.972111 377.311927,168.767085 C376.114578,174.899213 378.386712,181.301602 383.741783,185.029339 L387.079274,187.359174 C396.337512,193.80816 396.337512,207.386442 387.069846,213.826108 L383.741783,216.146624 C380.715414,218.252796 378.707262,221.253624 377.660761,224.543352 C377.792752,224.692462 377.905887,224.850891 378.037878,225 L504.268584,225 C517.741112,210.154287 525.999989,190.592986 525.999989,169.083943 C526.018845,132.486884 502.269861,101.453472 469.20607,90 Z" id="Path" fill="#436B1C"></path>
            <path d="M371.679936,81 C369.294596,81 366.909256,80.0866256 365.092297,78.2691969 L338.732426,51.9118211 C335.089191,48.2676436 335.089191,42.3773106 338.732426,38.7331331 C342.37566,35.0889556 348.264468,35.0889556 351.907703,38.7331331 L378.267574,65.090509 C381.910809,68.7346865 381.910809,74.6250194 378.267574,78.2691969 C376.450616,80.0866256 374.065276,81 371.679936,81 Z" id="Path" fill="#ED3F32"></path>
            <path d="M424.682706,134 C422.29718,134 419.911655,133.086626 418.094556,131.269197 L391.732638,104.911821 C388.089121,101.267644 388.089121,95.3773106 391.732638,91.7331331 C395.376155,88.0889556 401.26542,88.0889556 404.908938,91.7331331 L431.270855,118.090509 C434.905054,121.734686 434.914373,127.625019 431.270855,131.269197 C429.444438,133.095946 427.068231,134 424.682706,134 Z" id="Path" fill="#ED3F32"></path>
            <path d="M398.320788,81 C395.935262,81 393.549737,80.0866256 391.732638,78.2691969 C388.089121,74.6250194 388.089121,68.7346865 391.732638,65.090509 L418.094556,38.7331331 C421.738073,35.0889556 427.627338,35.0889556 431.270855,38.7331331 C434.914373,42.3773106 434.905054,48.2676436 431.270855,51.9118211 L404.908938,78.2691969 C403.091838,80.0866256 400.706313,81 398.320788,81 Z" id="Path" fill="#ED3F32"></path>
            <path d="M350.241252,129 C347.876083,129 345.510914,128.094322 343.70932,126.292208 C340.096893,122.678739 340.096893,116.838041 343.70932,113.224571 L365.226816,91.7101022 C368.839242,88.0966326 374.678254,88.0966326 378.29068,91.7101022 C381.903107,95.3235719 381.903107,101.16427 378.29068,104.777739 L356.773184,126.292208 C354.97159,128.103564 352.606421,129 350.241252,129 Z" id="Path" fill="#ED3F32"></path>
            <path d="M497.666667,169 L460.333333,169 C455.172,169 451,164.7535 451,159.5 C451,154.2465 455.172,150 460.333333,150 L497.666667,150 C502.828,150 507,154.2465 507,159.5 C507,164.7535 502.828,169 497.666667,169 Z" id="Path" fill="#659C35"></path>
            <path d="M441.5,225 C436.2465,225 432,220.828 432,215.666667 L432,178.333333 C432,173.172 436.2465,169 441.5,169 C446.7535,169 451,173.172 451,178.333333 L451,215.666667 C451,220.828 446.7535,225 441.5,225 Z" id="Path" fill="#659C35"></path>
            <path d="M221.010198,138.246379 C230.132485,141.097393 235.134727,151.55111 230.902061,160.715755 L229.203363,164.404196 C225.890434,171.574072 228.171005,180.089476 234.609163,184.634161 L237.931478,186.986483 C247.147616,193.497709 247.147616,207.207039 237.922093,213.708856 L234.609163,216.051769 C231.446395,218.28177 229.325369,221.480927 228.330552,225 L273.416425,225 L378.491661,225 C379.477094,221.480927 381.607504,218.291179 384.770273,216.051769 L388.083202,213.708856 C397.29934,207.19763 397.308725,193.497709 388.092587,186.986483 L384.770273,184.634161 C378.332115,180.089476 376.060928,171.574072 379.364473,164.404196 L381.06317,160.715755 C385.80263,150.450224 378.9703,138.585114 367.736372,137.568911 L363.700792,137.201949 C355.854874,136.486843 349.632573,130.257895 348.919308,122.391732 L348.55329,118.345739 C347.539703,107.082823 335.695745,100.232862 325.466019,104.984552 L321.796457,106.678223 C314.645034,109.999702 306.151547,107.713245 301.618558,101.258475 L299.281676,97.9369964 C292.787208,88.6876679 279.113162,88.6876679 272.618694,97.9369964 L270.281812,101.258475 C265.748823,107.713245 257.255335,109.999702 250.103913,106.678223 L246.424965,104.965733 C236.185855,100.214044 224.351282,107.073413 223.337695,118.32692 L222.971677,122.372913 C222.596274,126.531818 220.71926,131.189415 219.283345,134.228614 C218.532539,135.837602 219.33027,137.719459 221.010198,138.246379 Z" id="Path" fill="#88C057"></path>
            <path d="M117.100971,96.64768 L171.005398,19.9122343 C179.895886,7.24971242 197.508409,4.18968119 210.123542,13.1163367 L210.123542,13.1163367 C222.748034,22.0336056 225.798875,39.6991847 216.899029,52.35232 L162.994602,129.087766 C154.104114,141.750288 136.491591,144.810319 123.876458,135.883663 L123.876458,135.883663 C111.251966,126.966394 108.201125,109.310202 117.100971,96.64768 Z" id="Path" fill="#A46F3E"></path>
            <path d="M237.05192,187.171957 L233.725135,184.839321 C227.260051,180.31457 224.969941,171.836517 228.296726,164.69809 L230.002528,161.025828 C234.76181,150.805324 227.89148,138.992258 216.619993,137.980512 L212.567536,137.61516 C204.688804,136.903191 198.440479,130.701565 197.733655,122.869905 L197.366107,118.841659 C196.56504,110.054461 189.072705,104.049563 180.930092,104.105772 L163.419705,128.809226 C154.466601,141.446678 136.73003,144.500651 124.026046,135.591669 L124.026046,135.591669 C114.535755,128.940378 110.426752,117.436456 112.679164,106.766288 C108.334553,108.949035 103.179449,109.370596 98.5049865,107.22532 L94.8106529,105.520342 C84.5287194,100.789494 72.6446515,107.618777 71.6268249,118.822922 L71.2592764,122.851169 C70.543028,130.682829 64.304128,136.893823 56.4253962,137.596424 L52.3729384,137.961776 C41.092027,138.973522 34.2311218,150.795956 38.9904035,161.007092 L40.6962055,164.679354 C44.0229906,171.817781 41.7328808,180.295834 35.267797,184.820585 L31.9410119,187.153221 C22.6863294,193.635887 22.6863294,207.285084 31.9410119,213.76775 L35.267797,216.100386 C38.443793,218.320606 40.5736894,221.505731 41.563243,225 L227.429689,225 C228.419242,221.496363 230.558563,218.320606 233.725135,216.100386 L237.05192,213.76775 C246.316027,207.30382 246.316027,193.654623 237.05192,187.171957 Z" id="Path" fill="#FBD490"></path>
            <path d="M276.429581,165 C274.016212,165 271.602842,164.076066 269.764534,162.237626 C266.078489,158.551318 266.078489,152.592886 269.764534,148.906578 L283.905371,134.764731 C287.591416,131.078423 293.549422,131.078423 297.235466,134.764731 C300.921511,138.451039 300.921511,144.409471 297.235466,148.095779 L283.094629,162.237626 C281.256321,164.076066 278.842951,165 276.429581,165 Z" id="Path" fill="#436B1C"></path>
            <path d="M327.665889,188 C325.276954,188 322.888019,187.08541 321.068322,185.265561 L311.736544,175.933006 C308.087819,172.283976 308.087819,166.385801 311.736544,162.736772 C315.385269,159.087743 321.282953,159.087743 324.931678,162.736772 L334.263456,172.069328 C337.912181,175.718357 337.912181,181.616532 334.263456,185.265561 C332.443759,187.08541 330.054824,188 327.665889,188 Z" id="Path" fill="#436B1C"></path>
            <path d="M281.334111,206 C278.945176,206 276.556241,205.08541 274.736544,203.265561 C271.087819,199.616532 271.087819,193.718357 274.736544,190.069328 L284.068322,180.736772 C287.717047,177.087743 293.614731,177.087743 297.263456,180.736772 C300.912181,184.385801 300.912181,190.283976 297.263456,193.933006 L287.931678,203.265561 C286.111981,205.08541 283.723046,206 281.334111,206 Z" id="Path" fill="#436B1C"></path>
        </g>
    </g>
</svg>