<?xml version="1.0" encoding="UTF-8"?>
<svg width="701px" height="330px" viewBox="0 0 701 330" version="1.1" xmlns="http://www.w3.org/2000/svg" xmlns:xlink="http://www.w3.org/1999/xlink">
    <!-- Generator: Sketch 53.2 (72643) - https://sketchapp.com -->
    <title>subIcon</title>
    <desc>Created with Sketch.</desc>
    <g id="Admin-Page" stroke="none" stroke-width="1" fill="none" fill-rule="evenodd">
        <g id="subIcon" fill-rule="nonzero">
            <path d="M639.865937,230.10573 C632.175625,231.25845 624.05875,231.896125 615.625,231.896125 C593.24875,231.896125 573.005313,227.493714 557.8075,220.405709 C542.585312,227.505977 522.256562,231.896125 499.84375,231.896125 C472.616875,231.896125 448.436875,225.458059 432.8125,215.463726 C417.188125,225.458059 393.008125,231.896125 365.78125,231.896125 C334.690937,231.896125 307.561563,223.495981 292.65625,211 C277.750937,223.495981 250.621563,231.896125 219.53125,231.896125 C192.304375,231.896125 168.124375,225.458059 152.5,215.463726 C136.875625,225.458059 112.695625,231.896125 85.46875,231.896125 C74.719375,231.896125 64.4696875,230.853772 55,229.026587 C55,233.220528 55,237.377679 55,238.027617 C55,288.820899 95.925625,330 146.40625,330 L548.59375,330 C599.074375,330 640,288.820899 640,238.027617 C640,236.6419 639.85375,235.292972 639.792812,233.931781 C639.817187,233.711047 639.841563,232.104596 639.865937,230.10573 Z" id="Path" fill="#EEAF4B"></path>
            <path d="M639.935201,149 C639.009792,161.645952 628.550238,171.730853 615.764986,171.730853 L576.983055,171.730853 C582.279802,177.306346 585.32391,183.519037 585.32391,190.111597 C585.32391,202.53698 574.766945,213.687965 558,221.518162 C573.184009,228.613129 593.40906,233 615.764986,233 C662.839067,233 701,213.798249 701,190.111597 C701,170.652516 675.222497,154.244639 639.935201,149 Z" id="Path" fill="#7A3726"></path>
            <path d="M442.70368,171 C448.0176,176.5632 451.24,182.712 451.24,189.3 C451.24,199.2552 444.39392,208.393 433,215.652 C448.58912,225.595 472.71456,232 499.88,232 C546.89056,232 585,212.8826 585,189.3 C585,182.7364 581.96,176.551 576.69472,171 L442.70368,171 L442.70368,171 Z" id="Path" fill="#C56458"></path>
            <path d="M640,92.6071429 C640,42.0155714 599.074375,1 548.59375,1 C522.07375,1 498.259375,12.3959286 481.5625,30.4730714 C464.865625,12.3837143 441.05125,1 414.53125,1 C388.01125,1 364.196875,12.3959286 347.5,30.4730714 C330.803125,12.3837143 306.98875,1 280.46875,1 C253.94875,1 230.134375,12.3959286 213.4375,30.4730714 C196.740625,12.3837143 172.92625,1 146.40625,1 C95.925625,1 55,42.0155714 55,92.6071429 C55,93.9873571 55.14625,95.3309286 55.2071875,96.6867143 C55.14625,97.3707143 55,98.0180714 55,98.7142857 L55,147.571429 C55,161.007143 65.96875,172 79.375,172 L615.625,172 C629.03125,172 640,161.007143 640,147.571429 L640,98.7142857 C640,98.0180714 639.85375,97.3707143 639.792812,96.6867143 C639.85375,95.3187143 640,93.9873571 640,92.6071429 Z" id="Path" fill="#EEAF4B"></path>
            <path d="M79.3928571,171.4387 C66.9220714,171.4387 56.6620714,162.00325 55.2452143,150 C22.9872857,156.05613 0,171.475037 0,189.60709 C0,213.020089 38.2795714,232 85.5,232 C132.720429,232 171,213.020089 171,189.60709 C171,183.090694 167.946429,176.949778 162.657643,171.4387 L79.3928571,171.4387 L79.3928571,171.4387 Z" id="Path" fill="#7A3726"></path>
            <path d="M161.70368,171 C167.0176,176.5632 170.24,182.712 170.24,189.3 C170.24,199.2552 163.39392,208.393 152,215.652 C167.58912,225.595 191.71456,232 218.88,232 C265.89056,232 304,212.8826 304,189.3 C304,182.7364 300.96,176.551 295.69472,171 L161.70368,171 L161.70368,171 Z" id="Path" fill="#C56458"></path>
            <path d="M295.730385,171 C301.075231,176.551 304.230769,182.7242 304.230769,189.3 C304.230769,197.3276 299.717615,204.794 292,211.2112 C306.958231,223.643 334.183923,232 365.384615,232 C412.668769,232 451,212.8826 451,189.3 C451,182.7364 447.942308,176.551 442.646385,171 L295.730385,171 L295.730385,171 Z" id="Path" fill="#7A3726"></path>
            <circle id="Oval" fill="#FBD490" cx="134" cy="269" r="12"></circle>
            <circle id="Oval" fill="#FBD490" cx="195" cy="293" r="12"></circle>
            <circle id="Oval" fill="#FBD490" cx="244" cy="269" r="12"></circle>
            <circle id="Oval" fill="#FBD490" cx="280" cy="293" r="12"></circle>
            <circle id="Oval" fill="#FBD490" cx="329" cy="269" r="12"></circle>
            <circle id="Oval" fill="#FBD490" cx="378" cy="293" r="12"></circle>
            <circle id="Oval" fill="#FBD490" cx="427" cy="257" r="12"></circle>
            <circle id="Oval" fill="#FBD490" cx="463" cy="293" r="12"></circle>
            <circle id="Oval" fill="#FBD490" cx="524" cy="269" r="12"></circle>
            <circle id="Oval" fill="#FBD490" cx="573" cy="282" r="12"></circle>
            <path d="M194.210526,116 C187.458105,116 182,110.541895 182,103.789474 C182,46.5587368 228.558737,0 285.789474,0 C292.541895,0 298,5.45810526 298,12.2105263 C298,18.9629474 292.541895,24.4210526 285.789474,24.4210526 C242.026947,24.4210526 206.421053,60.0269474 206.421053,103.789474 C206.421053,110.541895 200.962947,116 194.210526,116 Z" id="Path" fill="#FBD490"></path>
            <path d="M323.210526,117 C316.458105,117 311,111.541895 311,104.789474 C311,47.5587368 357.558737,1 414.789474,1 C421.541895,1 427,6.45810526 427,13.2105263 C427,19.9629474 421.541895,25.4210526 414.789474,25.4210526 C371.026947,25.4210526 335.421053,61.0269474 335.421053,104.789474 C335.421053,111.541895 329.962947,117 323.210526,117 Z" id="Path" fill="#FBD490"></path>
            <g id="Group" transform="translate(445.000000, 0.000000)">
                <path d="M12.3579545,104.271788 C12.3579545,53.6200424 53.3026591,12.5556864 103.806818,12.5556864" id="Path" fill="#EEAF4B"></path>
                <path d="M12.3579545,116.500602 C5.615125,116.500602 0.164772727,111.034322 0.164772727,104.271788 C0.164772727,46.955339 46.657375,0.326872881 103.806818,0.326872881 C110.549648,0.326872881 116,5.79315254 116,12.5556864 C116,19.3182203 110.549648,24.7845 103.806818,24.7845 C60.1064545,24.7845 24.5511364,60.4437203 24.5511364,104.271788 C24.5511364,111.034322 19.1007841,116.500602 12.3579545,116.500602 Z" id="Path" fill="#FBD490"></path>
            </g>
            <path d="M177.464286,147.333333 C175.021429,147.333333 172.676286,147.552333 170.404429,147.868667 C168.034857,140.52 161.194857,135.166667 153.035714,135.166667 C150.617286,135.166667 148.333214,135.653333 146.220143,136.505 C144.107071,128.742667 137.059429,123 128.607143,123 C120.325857,123 113.400357,128.5115 111.140714,136.0305 C108.893286,135.507333 106.584786,135.166667 104.178571,135.166667 C97.6683571,135.166667 91.6589286,137.235 86.6999286,140.690333 C81.4477857,137.283667 74.8398571,135.166667 67.5357143,135.166667 C50.6677857,135.166667 37,146.055833 37,159.5 C37,172.932 50.6677857,183.833333 67.5357143,183.833333 C71.4565,183.833333 75.1696429,183.1885 78.6018571,182.117833 C84.0494286,190.452 93.4422143,196 104.178571,196 C110.139143,196 115.672214,194.223667 120.374714,191.279333 C124.405429,194.2115 129.34,196 134.714286,196 C145.462857,196 154.501429,189.0285 157.762643,179.416833 C163.088071,182.13 169.915857,183.833333 177.464286,183.833333 C194.332214,183.833333 208,175.657333 208,165.583333 C208,155.509333 194.332214,147.333333 177.464286,147.333333 Z" id="Path" fill="#88C057"></path>
            <path d="M323.464286,147.333333 C321.021429,147.333333 318.676286,147.552333 316.404429,147.868667 C314.034857,140.52 307.194857,135.166667 299.035714,135.166667 C296.617286,135.166667 294.333214,135.653333 292.220143,136.505 C290.107071,128.742667 283.059429,123 274.607143,123 C266.325857,123 259.400357,128.5115 257.140714,136.0305 C254.893286,135.507333 252.584786,135.166667 250.178571,135.166667 C243.668357,135.166667 237.658929,137.235 232.699929,140.690333 C227.447786,137.283667 220.839857,135.166667 213.535714,135.166667 C196.667786,135.166667 183,146.055833 183,159.5 C183,172.932 196.667786,183.833333 213.535714,183.833333 C217.4565,183.833333 221.169643,183.1885 224.601857,182.117833 C230.049429,190.452 239.442214,196 250.178571,196 C256.139143,196 261.672214,194.223667 266.374714,191.279333 C270.405429,194.2115 275.34,196 280.714286,196 C291.462857,196 300.501429,189.0285 303.762643,179.416833 C309.088071,182.13 315.915857,183.833333 323.464286,183.833333 C340.332214,183.833333 354,175.657333 354,165.583333 C354,155.509333 340.332214,147.333333 323.464286,147.333333 Z" id="Path" fill="#88C057"></path>
            <path d="M481.464286,147.333333 C479.021429,147.333333 476.676286,147.552333 474.404429,147.868667 C472.034857,140.52 465.194857,135.166667 457.035714,135.166667 C454.617286,135.166667 452.333214,135.653333 450.220143,136.505 C448.107071,128.742667 441.059429,123 432.607143,123 C424.325857,123 417.400357,128.5115 415.140714,136.0305 C412.893286,135.507333 410.584786,135.166667 408.178571,135.166667 C401.668357,135.166667 395.658929,137.235 390.699929,140.690333 C385.447786,137.283667 378.839857,135.166667 371.535714,135.166667 C354.667786,135.166667 341,146.055833 341,159.5 C341,172.932 354.667786,183.833333 371.535714,183.833333 C375.4565,183.833333 379.169643,183.1885 382.601857,182.117833 C388.049429,190.452 397.442214,196 408.178571,196 C414.139143,196 419.672214,194.223667 424.374714,191.279333 C428.405429,194.2115 433.34,196 438.714286,196 C449.462857,196 458.501429,189.0285 461.762643,179.416833 C467.088071,182.13 473.915857,183.833333 481.464286,183.833333 C498.332214,183.833333 512,175.657333 512,165.583333 C512,155.509333 498.332214,147.333333 481.464286,147.333333 Z" id="Path" fill="#88C057"></path>
            <path d="M640.464286,147.333333 C638.021429,147.333333 635.676286,147.552333 633.404429,147.868667 C631.034857,140.52 624.194857,135.166667 616.035714,135.166667 C613.617286,135.166667 611.333214,135.653333 609.220143,136.505 C607.107071,128.742667 600.059429,123 591.607143,123 C583.325857,123 576.400357,128.5115 574.140714,136.0305 C571.893286,135.507333 569.584786,135.166667 567.178571,135.166667 C560.668357,135.166667 554.658929,137.235 549.699929,140.690333 C544.447786,137.283667 537.839857,135.166667 530.535714,135.166667 C513.667786,135.166667 500,146.055833 500,159.5 C500,172.932 513.667786,183.833333 530.535714,183.833333 C534.4565,183.833333 538.169643,183.1885 541.601857,182.117833 C547.049429,190.452 556.442214,196 567.178571,196 C573.139143,196 578.672214,194.223667 583.374714,191.279333 C587.405429,194.2115 592.34,196 597.714286,196 C608.462857,196 617.501429,189.0285 620.762643,179.416833 C626.088071,182.13 632.915857,183.833333 640.464286,183.833333 C657.332214,183.833333 671,175.657333 671,165.583333 C671,155.509333 657.332214,147.333333 640.464286,147.333333 Z" id="Path" fill="#88C057"></path>
        </g>
    </g>
</svg>