<?xml version="1.0" encoding="UTF-8"?>
<svg width="537px" height="536px" viewBox="0 0 537 536" version="1.1" xmlns="http://www.w3.org/2000/svg" xmlns:xlink="http://www.w3.org/1999/xlink">
    <!-- Generator: Sketch 53.2 (72643) - https://sketchapp.com -->
    <title>wings&amp;Icon</title>
    <desc>Created with Sketch.</desc>
    <g id="Admin-Page" stroke="none" stroke-width="1" fill="none" fill-rule="evenodd">
        <g id="wings&amp;Icon" fill-rule="nonzero">
            <g id="garlic-bread" transform="translate(152.000000, 218.000000)">
                <path d="M384.703558,54.69 L384.690799,54.68625 C386.579776,37.8075 379.454649,23.30175 362.199444,13.34625 C313.137086,-14.9625 200.87694,4.194 111.451871,56.12775 C53.8639766,89.57175 19.7986062,128.4525 15.9396004,159.45825 L15.9335965,159.46125 L1.27057505,261.52275 L1.27883041,261.5235 C-1.33436647,279.16725 5.67593567,294.3495 23.5412865,304.6575 C62.8353021,327.32925 142.679649,319.54875 218.858616,288.86775 L218.863869,288.8685 L218.869873,288.86325 C237.795663,281.24025 256.494805,272.2095 274.28961,261.87525 C330.548392,229.20225 364.354094,191.3415 369.482924,160.7025 L369.490429,160.69575 L369.569981,160.149 C369.651033,159.63225 369.728333,159.11775 369.792875,158.6055 L384.272027,57.67725 C384.422125,56.80425 384.544454,55.93725 384.647271,55.07625 L384.703558,54.69 Z" id="Path" fill="#D07400"></path>
                <path d="M15.9396004,159.45825 L15.9335965,159.46125 L1.27057505,261.52275 L1.27883041,261.52425 C-1.33436647,279.168 5.67593567,294.35025 23.5412865,304.6575 C28.3954386,307.458 33.8709942,309.79275 39.8801462,311.67825 L83.1179727,74.33775 C42.7605166,103.0995 19.1156628,133.94325 15.9396004,159.45825 Z" id="Path" fill="#F18700"></path>
                <path d="M362.199444,13.3455 C313.137086,-14.96325 200.87694,4.19325 111.451871,56.127 C22.0275536,108.06075 -10.6981969,173.1075 38.3641618,201.4155 C87.4220175,229.7205 199.687417,210.567 289.111735,158.63325 C378.537554,106.69875 411.2573,41.6505 362.199444,13.3455 Z" id="Path" fill="#FF9911"></path>
                <path d="M100.464737,201.9675 C76.8649123,201.96675 57.5578752,198.024 44.632232,190.566 C33.5212671,184.15575 28.1132554,175.89225 28.0982456,165.30675 C28.0802339,152.64075 35.8560331,136.66275 49.9944639,120.315 C65.9168031,101.90475 89.3462671,83.454 117.750712,66.95775 C175.281569,33.54675 245.15194,12.79125 300.096618,12.79125 C323.694191,12.79125 343.002729,16.734 355.932125,24.19425 C367.041589,30.60375 372.4496,38.8665 372.46461,49.452 C372.482622,62.11875 364.706823,78.09675 350.569142,94.4445 C334.646803,112.8555 311.21809,131.30625 282.814396,147.8025 C225.28654,181.21125 155.414669,201.9675 100.474493,201.9675 C100.468489,201.9675 100.471491,201.9675 100.464737,201.9675 Z" id="Path" fill="#FEDAAA"></path>
                <path d="M114.213665,161.44425 C114.161881,160.27875 113.162982,159.3765 111.998226,159.45225 C94.1208674,160.6185 76.1947271,175.8285 66.4121248,170.184 C57.6711988,165.14025 50.8912963,152.1045 50.880039,143.77575 C50.8657797,133.812 63.3403801,121.2765 74.4633528,108.41475 C86.9897368,93.93075 114.105595,94.38825 136.452856,81.4095 C150.828441,73.06125 160.11347,57.48 175.76038,51.3435 C191.744259,45.07575 208.666998,48.0915 224.527797,44.5635 C242.02691,40.671 255.708294,30.21375 271.181842,30.21375 C289.747398,30.21375 310.717515,16.8735 320.88962,22.743 C329.629795,27.786 315.666228,44.30625 315.678236,52.63575 C315.692495,62.601 322.326053,75.4245 311.20308,88.28475 C298.676696,102.7695 287.908704,130.7355 265.562193,143.71425 C251.187359,152.0625 228.614201,147.621 212.96729,153.756 C196.984162,160.02375 179.039259,159.0675 163.17846,162.5955 C151.241959,165.2505 140.288596,170.1255 129.62117,172.95675 C122.052505,174.96525 114.569396,169.431 114.220419,161.61225 C114.218918,161.55525 114.216667,161.49975 114.213665,161.44425 Z" id="Path" fill="#FFEB9A"></path>
                <g id="Group" transform="translate(57.787524, 36.750000)" fill="#40A559">
                    <polygon id="Path" points="62.1583626 83.631 52.9956628 88.95225 43.7721735 83.631 52.9356238 78.30975"></polygon>
                    <polygon id="Path" points="13.5050195 99.09075 6.93375244 102.9075 0.321208577 99.0915 6.89172515 95.2755"></polygon>
                    <polygon id="Path" points="155.677339 70.629 149.106823 74.445 142.493528 70.62975 149.064045 66.81375"></polygon>
                    <polygon id="Path" points="147.922554 109.734 138.759103 115.056 129.536365 109.734 138.699064 104.41275"></polygon>
                    <polygon id="Path" points="99.7630312 43.97625 90.6003314 49.29825 81.3775926 43.97625 90.5402924 38.65575"></polygon>
                    <polygon id="Path" points="256.118811 16.2555 246.956111 21.5775 237.733372 16.25625 246.896072 10.93425"></polygon>
                    <polygon id="Path" points="206.895097 25.48275 197.731647 30.80475 188.508908 25.48275 197.672359 20.1615"></polygon>
                    <polygon id="Path" points="113.553236 87.597 107.92383 90.8655 102.259152 87.597 107.887057 84.32775"></polygon>
                    <polygon id="Path" points="188.508908 3.80025 182.880253 7.06875 177.215575 3.80025 182.84348 0.531"></polygon>
                    <polygon id="Path" points="144.37575 30.80475 138.747096 34.07325 133.082417 30.80475 138.710322 27.53625"></polygon>
                    <polygon id="Path" points="237.733372 51.10875 232.103967 54.37725 226.439288 51.10875 232.067943 47.84025"></polygon>
                    <polygon id="Path" points="74.2592203 119.589 69.6774951 122.25 65.066501 119.589 69.6474756 116.92875"></polygon>
                </g>
            </g>
            <g id="fried-chicken" transform="translate(0.000000, -0.000000)">
                <path d="M57.220625,215.84325 C45.3668359,206.10675 27.8673828,204.89025 14.4713379,214.5045 C0.536142578,224.50575 -4.03723633,243.537 3.84624023,258.7485 C8.71889648,268.1505 17.1264844,274.3215 26.4867969,276.654 C29.8562988,277.494 31.986582,280.9365 31.2286133,284.31675 C29.1231445,293.7075 30.8849707,303.96975 37.1269336,312.52875 C47.2256641,326.37525 66.332793,330.8295 81.5425488,322.8885 C96.1642773,315.255 102.91832,299.1075 99.505957,284.17425 C98.8758203,281.41725 100.045107,278.5665 102.457373,277.0815 L147.226406,249.52125 L109.670107,188.832 L64.9010742,216.39225 C62.4880566,217.8765 59.4088086,217.641 57.220625,215.84325 Z" id="Path" fill="#F9E8D4"></path>
                <path d="M147.228662,249.516 L129.210361,220.3995 L85.8933496,247.0545 C83.4855957,248.5365 82.3223242,251.39475 82.9532129,254.1495 C86.3625684,269.0805 79.6040137,285.228 64.984541,292.869 C53.8533789,298.68525 40.6295312,297.8565 30.3766504,291.54825 C30.302959,298.779 32.4573047,306.123 37.120918,312.52125 C47.226416,326.37 66.3290332,330.82275 81.5448047,322.8945 C96.1642773,315.25275 102.922832,299.106 99.4999414,284.17125 C98.8690527,281.4165 100.045859,278.56125 102.453613,277.07925 L147.228662,249.516 Z" id="Path" fill="#E8D0BA"></path>
                <path d="M385,163.50525 C385,154.9185 380.475498,147.38925 373.676338,143.15025 C372.901826,142.66725 372.686016,141.651 373.202607,140.90025 C375.853242,137.04525 377.408281,132.38175 377.408281,127.3545 C377.408281,123.19575 376.34502,119.28525 374.47792,115.87575 C374.126006,115.233 374.259854,114.42075 374.812539,113.9385 C380.933437,108.60075 384.802988,100.76025 384.802988,92.01375 C384.802988,75.93 371.731035,62.892 355.6054,62.892 C354.375205,62.892 353.164561,62.9715 351.974971,63.12 C351.311748,63.20325 350.680107,62.862 350.386094,62.2635 C346.115752,53.56575 337.629209,47.30925 327.580107,46.137 C326.862744,46.053 326.284492,45.4845 326.200273,44.769 C324.508379,30.29175 312.178604,19.0545 297.210225,19.0545 C293.230137,19.0545 289.438789,19.854 285.982061,21.294 C285.015049,21.69675 283.945771,21.10875 283.768311,20.07825 C281.815488,8.784 271.952871,0.1905 260.07126,0.1905 C248.974687,0.1905 239.634678,7.68525 236.857715,17.87625 C236.556934,18.9795 235.230488,19.407 234.3304,18.69825 C230.23376,15.4695 225.05957,13.5405 219.432705,13.5405 C210.17917,13.5405 202.150566,18.7545 198.127617,26.39625 C197.804277,27.0105 197.100449,27.33075 196.420684,27.18675 C194.803232,26.84325 193.126377,26.661 191.405908,26.661 C178.1204,26.661 167.350928,37.40325 167.350928,50.6535 C167.350928,50.6565 167.350928,50.6595 167.350928,50.6625 C167.35168,51.21525 167.071953,51.723 166.607246,52.02375 C159.993066,56.29875 155.615195,63.723 155.615195,72.1695 C155.615195,77.4585 157.334912,82.34475 160.241963,86.31 C160.848789,87.13725 160.496123,88.33575 159.535127,88.701 C152.614902,91.3335 147.228662,97.05825 145.075068,104.18475 C144.866777,104.8755 144.204307,105.32325 143.48168,105.29025 C143.079385,105.2715 142.674834,105.26175 142.268027,105.26175 C126.142393,105.26175 113.070439,118.29975 113.070439,134.3835 C113.070439,141.96675 115.98125,148.869 120.744121,154.05075 C121.452461,154.821 121.276504,156.0525 120.350098,156.54 C112.711758,160.56 107.50373,168.558 107.50373,177.77175 C107.50373,178.9755 107.594717,180.1575 107.766914,181.3125 C107.86542,181.971 107.546592,182.63325 106.956309,182.94525 C99.3435352,186.9735 94.1573145,194.95575 94.1573145,204.15 C94.1573145,207.76725 94.9649121,211.19475 96.4026465,214.26975 C96.6064258,214.7055 96.6064258,215.20125 96.4026465,215.637 C94.9649121,218.71275 94.1573145,222.1395 94.1573145,225.75675 C94.1573145,237.072 102.011465,246.5535 112.57791,249.08325 C113.179473,249.22725 113.642676,249.68475 113.793066,250.28325 C116.414375,260.70225 125.865674,268.41675 137.124668,268.41675 C143.084648,268.41675 148.534805,266.25075 152.735967,262.67025 C153.35332,262.14375 154.269951,262.17375 154.854971,262.7355 C159.178701,266.883 165.051455,269.4345 171.524268,269.4345 C182.089961,269.4345 191.061514,262.6395 194.292656,253.19325 C194.685928,252.04275 196.216904,251.76075 196.998936,252.69375 C200.52334,256.899 205.46292,259.881 211.090537,260.91075 C211.731201,261.02775 212.242529,261.5355 212.359834,262.1745 C214.41417,273.34575 224.218887,281.8125 236.013271,281.8125 C245.842803,281.8125 254.28874,275.9295 258.020684,267.504 C258.276348,266.9265 258.868135,266.5695 259.500527,266.5875 C259.689268,266.59275 259.878008,266.59575 260.068252,266.59575 C266.916289,266.59575 273.09584,263.74125 277.476719,259.16025 C278.112871,258.495 279.162598,258.495 279.79875,259.16025 C284.179629,263.74125 290.35918,266.59575 297.207217,266.59575 C308.325596,266.59575 317.680645,259.071 320.436553,248.84925 C320.634316,248.1165 321.328369,247.62375 322.085586,247.68975 C322.766855,247.749 323.455645,247.7805 324.151953,247.7805 C333.840869,247.7805 342.186797,242.064 345.997695,233.8305 C346.293213,233.19225 346.982002,232.8375 347.678311,232.9455 C352.720156,233.72775 358.436504,232.46625 364.142324,227.69925 C364.258877,227.60175 364.365654,227.4855 364.452881,227.361 C370.82042,218.2515 369.267637,208.74375 363.838535,202.8375 C363.271562,202.221 363.271562,201.288 363.838535,200.6715 C366.798223,197.451 368.605918,193.16025 368.605918,188.44725 C368.605918,188.121 368.596143,187.79775 368.578096,187.476 C368.539746,186.792 368.927754,186.1485 369.568418,185.9025 C378.594863,182.44275 385,173.7225 385,163.50525 Z" id="Path" fill="#FF9017"></path>
                <path d="M384.998496,163.5075 C384.998496,173.72175 378.594863,182.4435 369.571426,185.90025 C368.927754,186.14775 368.540498,186.78975 368.578848,187.4775 C368.602158,187.79475 368.609678,188.1195 368.609678,188.44425 C368.609678,193.161 366.803486,197.4525 363.842295,200.6685 C363.276074,201.28725 363.276074,202.2225 363.842295,202.83375 C369.269141,208.7415 370.827187,218.2515 364.455137,227.36025 C364.369414,227.484 364.261133,227.60025 364.14458,227.70075 C358.43876,232.464 352.72542,233.724 347.678311,232.94325 C346.980498,232.83525 346.298477,233.19075 346.003711,233.83275 C342.189805,242.06775 333.840117,247.782 324.157969,247.782 C323.460156,247.782 322.770615,247.75125 322.087842,247.689 C321.328369,247.62675 320.638076,248.11425 320.436553,248.8485 C317.684404,259.07025 308.3271,266.59425 297.210225,266.59425 C290.365195,266.59425 284.178125,263.74125 279.79875,259.16325 C279.16335,258.498 278.116631,258.498 277.480479,259.16325 C273.100352,263.7405 266.921553,266.59425 260.069004,266.59425 C259.883271,266.59425 259.689268,266.59425 259.502783,266.58675 C258.867383,266.571 258.277852,266.92725 258.022187,267.507 C254.293252,275.92725 245.843555,281.81175 236.013271,281.81175 C225.586689,281.81175 216.702363,275.1855 213.376475,265.92225 C222.609707,265.404 230.439043,259.68975 233.989766,251.664 C234.24543,251.08425 234.834961,250.72875 235.470361,250.74375 C235.656094,250.75125 235.850098,250.75125 236.036582,250.75125 C242.889883,250.75125 249.06793,247.89825 253.448057,243.32025 C254.083457,242.655 255.130176,242.655 255.766328,243.32025 C260.146455,247.8975 266.332773,250.75125 273.177803,250.75125 C284.294678,250.75125 293.651982,243.228 296.404131,233.0055 C296.605654,232.27875 297.295195,231.78375 298.05542,231.846 C298.737441,231.9075 299.427734,231.939 300.125547,231.939 C309.808447,231.939 318.157383,226.22475 321.971289,217.98975 C322.266055,217.34775 322.948076,216.99225 323.645889,217.10025 C328.692998,217.88925 334.406338,216.621 340.112158,211.85775 C340.228711,211.75725 340.336992,211.641 340.422715,211.51725 C346.794766,202.4085 345.236719,192.8985 339.809873,186.99825 C339.243652,186.3795 339.243652,185.44425 339.809873,184.8255 C342.771064,181.60875 344.577256,177.31725 344.577256,172.60125 C344.577256,172.2765 344.569736,171.95175 344.546426,171.6345 C344.508076,170.946 344.895332,170.30475 345.539004,170.05725 C354.563193,166.60125 360.966074,157.87875 360.966074,147.6645 C360.966074,139.074 356.446084,131.55075 349.647676,127.30575 C348.872412,126.8265 348.655098,125.81325 349.167178,125.05575 C351.818564,121.20525 353.376611,116.5425 353.376611,111.51675 C353.376611,107.3565 352.314854,103.4445 350.44625,100.03425 C350.089824,99.39225 350.228936,98.58075 350.779365,98.09325 C356.904023,92.75775 360.77207,84.91725 360.77207,76.17225 C360.77207,71.41725 359.632861,66.93225 357.601084,62.9655 C372.80332,63.98625 384.804492,76.605 384.804492,92.01525 C384.804492,100.76025 380.936445,108.60075 374.811787,113.93625 C374.261357,114.42375 374.122246,115.23525 374.478672,115.87725 C376.347275,119.2875 377.409033,123.192 377.409033,127.3515 C377.409033,132.3855 375.850986,137.0475 373.1996,140.898 C372.68752,141.648 372.904834,142.66875 373.680098,143.148 C380.478506,147.38625 384.998496,154.917 384.998496,163.5075 Z" id="Path" fill="#EF7D0A"></path>
                <g id="Group" transform="translate(148.134766, 72.000000)" fill="#DB6E0B">
                    <path d="M16.3775391,117.609 C19.5650684,117.222 21.8352148,114.33075 21.447207,111.1515 C21.0599512,107.973 18.1664355,105.71175 14.9728906,106.095 C6.01487305,107.18175 -0.387255859,115.33575 0.701572266,124.2705 C1.22944336,128.59875 3.41537109,132.4635 6.85706055,135.1515 C9.76636719,137.424 13.2779883,138.62625 16.9159375,138.62625 C17.581416,138.62625 18.2521582,138.58575 18.9244043,138.50475 C22.1119336,138.1185 24.3820801,135.22725 23.9948242,132.048 C23.6075684,128.86875 20.7110449,126.6075 17.5212598,126.99075 C16.2639941,127.14525 15.0240234,126.79875 14.0276855,126.02025 C13.0313477,125.24175 12.3982031,124.12275 12.2455566,122.87025 C11.9297363,120.2835 13.7833008,117.92325 16.3775391,117.609 Z" id="Path"></path>
                    <path d="M118.510068,28.24425 C118.636396,28.2525 118.761973,28.25625 118.886797,28.25625 C121.928447,28.2555 124.486592,25.8975 124.683604,22.82775 C125.045293,17.20125 123.188721,11.77125 119.455273,7.53825 C115.721074,3.30525 110.558916,0.7755 104.918516,0.4155 C98.5299219,0.012 92.6270898,2.484 88.4680371,6.708 C85.4233789,3.8235 81.5034473,2.103 77.2616797,1.83225 C72.4649707,1.52625 67.8449707,3.09975 64.2401074,6.2625 C60.6344922,9.42525 58.4793945,13.8 58.1733496,18.579 C57.9680664,21.7755 60.3991309,24.5325 63.6039551,24.73725 C66.8080273,24.93375 69.572959,22.51575 69.7774902,19.32075 C69.8857715,17.6325 70.646748,16.08825 71.9198047,14.9715 C73.1921094,13.85475 74.8238477,13.299 76.517998,13.407 C78.2106445,13.515 79.758916,14.274 80.8793262,15.54375 C81.9989844,16.8135 82.5561816,18.4425 82.4479004,20.13 C82.3065332,22.3275 83.4111523,24.31725 85.1571875,25.413 C85.2699805,25.4835 85.3887891,25.54575 85.5060938,25.6095 C85.5542188,25.635 85.5993359,25.665 85.6482129,25.68975 C86.1550293,25.9425 86.704707,26.12475 87.2859668,26.2215 C87.4799707,26.25375 87.6769824,26.27625 87.877002,26.289 C88.0033301,26.29725 88.1289062,26.301 88.2537305,26.301 C88.2980957,26.301 88.340957,26.29575 88.3853223,26.295 C88.4575098,26.2935 88.5289453,26.289 88.6003809,26.2845 C88.726709,26.277 88.8515332,26.2665 88.9756055,26.25075 C89.0357617,26.24325 89.095166,26.23425 89.1553223,26.2245 C89.2861621,26.20425 89.41625,26.1795 89.544834,26.15025 C89.5982227,26.13825 89.6508594,26.12475 89.7034961,26.11125 C89.8343359,26.0775 89.9629199,26.03925 90.09,25.99725 C90.138877,25.98075 90.1877539,25.96425 90.2366309,25.94625 C90.3637109,25.89975 90.4877832,25.8495 90.6111035,25.79475 C90.6577246,25.77375 90.7050977,25.75275 90.7509668,25.731 C90.8705273,25.674 90.987832,25.6125 91.1028809,25.54725 C91.149502,25.521 91.196123,25.49475 91.2427441,25.467 C91.3525293,25.401 91.4593066,25.3305 91.5645801,25.25775 C91.6119531,25.22475 91.6585742,25.19325 91.7051953,25.15875 C91.8044531,25.08525 91.9007031,25.00725 91.9954492,24.92775 C92.0420703,24.88875 92.0894434,24.84975 92.1353125,24.80925 C92.224043,24.72975 92.3082617,24.64575 92.3924805,24.561 C92.4383496,24.5145 92.4857227,24.46875 92.5300879,24.42075 C92.6075391,24.33675 92.6804785,24.249 92.752666,24.1605 C92.7970312,24.1065 92.8429004,24.05325 92.8857617,23.997 C92.9526855,23.9085 93.0143457,23.817 93.0767578,23.72475 C93.1181152,23.664 93.1602246,23.60475 93.1993262,23.54175 C93.2564746,23.44875 93.3083594,23.35275 93.3602441,23.256 C93.3963379,23.18925 93.4346875,23.12475 93.4685254,23.0565 C93.5166504,22.959 93.5580078,22.857 93.6008691,22.7565 C93.6309473,22.686 93.6640332,22.617 93.6911035,22.545 C93.730957,22.43925 93.763291,22.32975 93.7971289,22.221 C93.8189355,22.14975 93.8452539,22.08075 93.8640527,22.00875 C93.8971387,21.8865 93.9212012,21.76125 93.9460156,21.636 C93.9580469,21.57375 93.9753418,21.51375 93.9858691,21.45075 C94.0174512,21.261 94.0400098,21.06825 94.052793,20.87175 C94.388916,15.639 98.9480078,11.6535 104.175586,11.991 C106.717187,12.153 109.042227,13.29225 110.723594,15.1995 C112.405713,17.10675 113.242637,19.5525 113.079463,22.08675 C112.873428,25.28175 115.305244,28.0395 118.510068,28.24425 Z" id="Path"></path>
                    <path d="M171.234766,108.087 C168.026934,107.85225 165.242451,110.24625 165.004834,113.43975 C164.766465,116.634 167.168955,119.41575 170.371523,119.6535 C171.020459,119.7015 171.664131,119.7255 172.304043,119.7255 C185.67001,119.72475 197.012471,109.40175 198.020088,95.895 C198.531416,89.0385 196.334961,82.39425 191.835273,77.1855 C187.335586,71.97675 181.072568,68.8275 174.199717,68.3175 C170.995645,68.0835 168.208154,70.47675 167.969785,73.671 C167.732168,76.86525 170.134658,79.647 173.336475,79.884 C177.112783,80.1645 180.554473,81.894 183.026143,84.75525 C185.497812,87.61725 186.703945,91.2675 186.422715,95.034 C185.843711,102.81 179.028008,108.666 171.234766,108.087 Z" id="Path"></path>
                </g>
            </g>
        </g>
    </g>
</svg>