<?xml version="1.0" encoding="UTF-8"?>
<svg width="504px" height="512px" viewBox="0 0 504 512" version="1.1" xmlns="http://www.w3.org/2000/svg" xmlns:xlink="http://www.w3.org/1999/xlink">
    <!-- Generator: Sketch 53.2 (72643) - https://sketchapp.com -->
    <title>dessertIcon</title>
    <desc>Created with Sketch.</desc>
    <g id="Admin-Page" stroke="none" stroke-width="1" fill="none" fill-rule="evenodd">
        <g id="dessertIcon" fill-rule="nonzero">
            <path d="M0.339,234.305 L503.661,234.305 L503.661,234.305 L503.661,459.932 C503.661,488.691 480.352,512 451.593,512 L451.593,512 L0.339,512 L0.339,512 L0.339,234.305 L0.339,234.305 Z" id="Path" fill="#F0DBC2"></path>
            <path d="M0.339,286.373 L425.559,286.373 C439.938,286.373 451.593,298.027 451.593,312.407 L451.593,433.899 C451.593,448.278 439.938,459.933 425.559,459.933 L0.339,459.933 L0.339,459.933 L0.339,286.373 L0.339,286.373 Z" id="SVGCleanerId_0" fill="#F2B9B8"></path>
            <path d="M0.339,286.373 L425.559,286.373 C439.938,286.373 451.593,298.027 451.593,312.407 L451.593,433.899 C451.593,448.278 439.938,459.933 425.559,459.933 L0.339,459.933 L0.339,459.933 L0.339,286.373 L0.339,286.373 Z" id="SVGCleanerId_0_1_" fill="#F2B9B8"></path>
            <path d="M0.339,234.305 L304.068,52.068 L304.068,52.068 C407.388,52.085 493.768,130.63 503.583,233.481 L503.661,234.305 L0.339,234.305 Z" id="Path" fill="#F29C9B"></path>
            <circle id="Oval" fill="#F0614A" cx="399.525" cy="95.458" r="52.068"></circle>
            <path d="M425.438,50.332 C424.188,89.036 393.104,120.12 354.4,121.37 C368.667,146.337 400.471,155.014 425.438,140.757 C450.404,126.49 459.082,94.686 444.825,69.719 C440.208,61.64 433.517,54.949 425.438,50.332 Z" id="Path" fill="#EA5242"></path>
            <g id="Group" transform="translate(133.000000, 0.000000)" fill="#965735">
                <path d="M275.203,78.102 L257.847,78.102 C257.9,34.99 292.837,0.052 335.949,0 L335.949,17.356 C302.418,17.391 275.238,44.57 275.203,78.102 Z" id="Path"></path>
                <rect id="Rectangle" transform="translate(175.406459, 99.798481) rotate(135.000000) translate(-175.406459, -99.798481) " x="166.728542" y="81.3886579" width="17.3558336" height="36.8196469"></rect>
                <rect id="Rectangle" transform="translate(79.970335, 151.858567) rotate(135.000000) translate(-79.970335, -151.858567) " x="61.560512" y="143.18065" width="36.8196469" height="17.3558336"></rect>
                <rect id="Rectangle" transform="translate(114.663153, 186.585225) rotate(135.000000) translate(-114.663153, -186.585225) " x="105.985237" y="168.175402" width="17.3558336" height="36.8196469"></rect>
                <rect id="Rectangle" transform="translate(158.053847, 151.885272) rotate(135.000000) translate(-158.053847, -151.885272) " x="139.644024" y="143.207355" width="36.8196469" height="17.3558336"></rect>
                <rect id="Rectangle" transform="translate(305.575185, 186.569993) rotate(135.000000) translate(-305.575185, -186.569993) " x="287.165361" y="177.892076" width="36.8196469" height="17.3558336"></rect>
                <rect id="Rectangle" transform="translate(210.121944, 186.577834) rotate(135.000000) translate(-210.121944, -186.577834) " x="191.712121" y="177.899917" width="36.8196469" height="17.3558336"></rect>
                <rect id="Rectangle" transform="translate(19.203999, 186.615968) rotate(135.000000) translate(-19.203999, -186.615968) " x="0.794175853" y="177.938051" width="36.8196469" height="17.3558336"></rect>
            </g>
            <path d="M318.681,286.373 L425.559,286.373 C439.938,286.373 451.593,298.027 451.593,312.407 L451.593,433.899 C451.593,448.278 439.938,459.933 425.559,459.933 L117.717,459.933 L57.431,512 L451.593,512 C480.352,512 503.661,488.691 503.661,459.932 L503.661,459.932 L503.661,234.305 L378.976,234.305 L318.681,286.373 Z" id="Path" fill="#EBD3B7"></path>
            <path d="M425.559,459.932 C439.938,459.932 451.593,448.278 451.593,433.898 L451.593,312.407 C451.593,298.028 439.938,286.373 425.559,286.373 L318.681,286.373 L117.717,459.932 L425.559,459.932 Z" id="Path" fill="#F2AEAC"></path>
            <rect id="Rectangle" fill="#F28685" x="0.339" y="364.475" width="451.254" height="17.356"></rect>
        </g>
    </g>
</svg>